<svg width="100" height="100" viewBox="0 0 100 100" fill="none" xmlns="http://www.w3.org/2000/svg">
<path d="M85.4043 51.1094L52.4783 97.6567C52.1843 98.0718 51.7968 98.4102 51.3479 98.6438C50.8989 98.8774 50.4014 98.9995 49.8966 99H49.889C49.3822 98.9989 48.883 98.8756 48.4329 98.6401C47.9828 98.4047 47.5947 98.0641 47.3009 97.6465L14.5873 51.0992C14.2491 50.618 14.0486 50.0518 14.0078 49.4628C13.967 48.8739 14.0875 48.2849 14.356 47.7607C14.6231 47.2358 15.0282 46.7956 15.5268 46.4887C16.0253 46.1818 16.598 46.02 17.1817 46.0212H32.5774L32.5762 4.21452C32.576 3.79223 32.6581 3.37404 32.8179 2.98388C32.9776 2.59372 33.2118 2.23923 33.5071 1.94068C33.8024 1.64214 34.153 1.40539 34.5388 1.24398C34.9246 1.08257 35.3381 0.999667 35.7557 1L64.2409 1.00128C64.6586 1.00111 65.0722 1.08422 65.4582 1.24585C65.8441 1.40748 66.1947 1.64446 66.49 1.94324C66.7853 2.24202 67.0194 2.59675 67.1791 2.98713C67.3387 3.37751 67.4208 3.79589 67.4204 4.21835V46.0199H82.8212C84.0091 46.0199 85.0997 46.6973 85.6482 47.7671C85.9156 48.2929 86.0344 48.8832 85.9914 49.473C85.9483 50.0627 85.7452 50.629 85.4043 51.1094V51.1094Z" fill="black"/>
</svg>
