<svg width="100" height="100" viewBox="0 0 100 100" fill="none" xmlns="http://www.w3.org/2000/svg">
<path d="M48.8906 14.5957L2.34332 47.5217C1.92817 47.8157 1.5898 48.2032 1.3562 48.6521C1.12261 49.1011 1.00051 49.5986 1 50.1034V50.111C1.00107 50.6178 1.12444 51.117 1.35986 51.5671C1.59527 52.0172 1.93594 52.4053 2.35355 52.6991L48.9008 85.4127C49.382 85.7509 49.9482 85.9514 50.5372 85.9922C51.1261 86.033 51.7151 85.9125 52.2393 85.644C52.7642 85.3769 53.2044 84.9718 53.5113 84.4732C53.8182 83.9747 53.98 83.402 53.9788 82.8183V67.4226L95.7855 67.4238C96.2078 67.424 96.626 67.3419 97.0161 67.1821C97.4063 67.0224 97.7608 66.7882 98.0593 66.4929C98.3579 66.1976 98.5946 65.847 98.756 65.4612C98.9174 65.0754 99.0003 64.6619 99 64.2443L98.9987 35.7591C98.9989 35.3414 98.9158 34.9278 98.7542 34.5418C98.5925 34.1559 98.3555 33.8053 98.0568 33.51C97.758 33.2147 97.4033 32.9806 97.0129 32.8209C96.6225 32.6613 96.2041 32.5793 95.7816 32.5796L53.9801 32.5796L53.9801 17.1788C53.9801 15.9909 53.3027 14.9003 52.2329 14.3518C51.7071 14.0844 51.1168 13.9656 50.527 14.0086C49.9373 14.0517 49.371 14.2548 48.8906 14.5957V14.5957Z" fill="black"/>
</svg>
