<svg width="100" height="100" viewBox="0 0 100 100" fill="none" xmlns="http://www.w3.org/2000/svg">
<path d="M51.1094 14.5957L97.6567 47.5217C98.0718 47.8157 98.4102 48.2032 98.6438 48.6521C98.8774 49.1011 98.9995 49.5986 99 50.1034V50.111C98.9989 50.6178 98.8756 51.117 98.6401 51.5671C98.4047 52.0172 98.0641 52.4053 97.6465 52.6991L51.0992 85.4127C50.618 85.7509 50.0518 85.9514 49.4628 85.9922C48.8739 86.033 48.2849 85.9125 47.7607 85.644C47.2358 85.3769 46.7956 84.9718 46.4887 84.4732C46.1818 83.9747 46.02 83.402 46.0212 82.8183V67.4226L4.21452 67.4238C3.79223 67.424 3.37404 67.3419 2.98388 67.1821C2.59372 67.0224 2.23923 66.7882 1.94068 66.4929C1.64214 66.1976 1.40539 65.847 1.24398 65.4612C1.08257 65.0754 0.999667 64.6619 1 64.2443L1.00128 35.7591C1.00111 35.3414 1.08422 34.9278 1.24585 34.5418C1.40748 34.1559 1.64446 33.8053 1.94324 33.51C2.24202 33.2147 2.59675 32.9806 2.98713 32.8209C3.37751 32.6613 3.79589 32.5793 4.21835 32.5796L46.0199 32.5796L46.0199 17.1788C46.0199 15.9909 46.6973 14.9003 47.7671 14.3518C48.2929 14.0844 48.8832 13.9656 49.473 14.0086C50.0627 14.0517 50.629 14.2548 51.1094 14.5957V14.5957Z" fill="black"/>
</svg>
