<svg width="100" height="100" viewBox="0 0 100 100" fill="none" xmlns="http://www.w3.org/2000/svg">
<path d="M85.4043 48.8906L52.4783 2.34332C52.1843 1.92817 51.7968 1.5898 51.3479 1.3562C50.8989 1.12261 50.4014 1.00051 49.8966 1H49.889C49.3822 1.00107 48.883 1.12444 48.4329 1.35986C47.9828 1.59527 47.5947 1.93594 47.3009 2.35355L14.5873 48.9008C14.2491 49.382 14.0486 49.9482 14.0078 50.5372C13.967 51.1261 14.0875 51.7151 14.356 52.2393C14.6231 52.7642 15.0282 53.2044 15.5268 53.5113C16.0253 53.8182 16.598 53.98 17.1817 53.9788H32.5774L32.5762 95.7855C32.576 96.2078 32.6581 96.626 32.8179 97.0161C32.9776 97.4063 33.2118 97.7608 33.5071 98.0593C33.8024 98.3579 34.153 98.5946 34.5388 98.756C34.9246 98.9174 35.3381 99.0003 35.7557 99L64.2409 98.9987C64.6586 98.9989 65.0722 98.9158 65.4582 98.7542C65.8441 98.5925 66.1947 98.3555 66.49 98.0568C66.7853 97.758 67.0194 97.4033 67.1791 97.0129C67.3387 96.6225 67.4208 96.2041 67.4204 95.7816V53.9801H82.8212C84.0091 53.9801 85.0997 53.3027 85.6482 52.2329C85.9156 51.7071 86.0344 51.1168 85.9914 50.527C85.9483 49.9373 85.7452 49.371 85.4043 48.8906V48.8906Z" fill="#ed771e"/>
</svg>
