<?xml version="1.0" encoding="utf-8"?>
<!-- Generator: Adobe Illustrator 26.0.1, SVG Export Plug-In . SVG Version: 6.00 Build 0)  -->
<svg version="1.1" id="Layer_1" xmlns="http://www.w3.org/2000/svg" xmlns:xlink="http://www.w3.org/1999/xlink" x="0px" y="0px"
	 viewBox="0 0 256 256" style="enable-background:new 0 0 256 256;" xml:space="preserve">
<style type="text/css">
	.st0{fill:#4C4847;stroke:#3D0C42;stroke-width:1.0357;stroke-linejoin:round;stroke-miterlimit:10;}
	.st1{fill:#FFFFFF;stroke:#3D0C42;stroke-width:1.0357;stroke-linecap:round;stroke-miterlimit:10;}
	.st2{fill:#6D0C80;stroke:#3D0C42;stroke-width:1.4391;stroke-linecap:round;stroke-miterlimit:10;}
	.st3{fill:#FFFFFF;stroke:#3D0C42;stroke-width:0.8675;stroke-linecap:round;stroke-miterlimit:10;}
	.st4{fill:#6D0C80;stroke:#3D0C42;stroke-width:1.0357;stroke-linecap:round;stroke-miterlimit:10;}
	.st5{fill:#333333;stroke:#3D0C42;stroke-width:1.0357;stroke-miterlimit:10;}
	.st6{fill:#333333;}
	.st7{fill:#AF6553;stroke:#3D0C42;stroke-width:1.0357;stroke-linecap:round;stroke-linejoin:round;stroke-miterlimit:10;}
	.st8{opacity:0.33;fill:#AF6553;stroke:#3D0C42;stroke-width:1.0357;stroke-miterlimit:10;}
	.st9{fill:#92493D;stroke:#3D0C42;stroke-width:1.0357;stroke-miterlimit:10;}
	.st10{fill:#FAD90D;stroke:#3D0C42;stroke-width:1.0357;stroke-linejoin:round;stroke-miterlimit:10;}
	.st11{fill:#AF6553;}
	.st12{fill:#AF6553;stroke:#3D0C42;stroke-width:1.0357;stroke-linecap:round;stroke-miterlimit:10;}
	.st13{fill:#3D0C42;}
	.st14{clip-path:url(#SVGID_00000057146601564723448950000008547694279113481351_);}
	.st15{fill:none;stroke:#EB2A86;stroke-width:0.5179;stroke-linecap:round;stroke-miterlimit:10;}
	.st16{fill:#470144;}
	.st17{fill:#6F0162;}
	.st18{fill:#851E7C;}
	.st19{fill:#FFFFFF;}
	.st20{fill:#3E1451;}
	.st21{fill:#20052D;}
	.st22{fill:#1A0720;}
	.st23{fill:#7AB0CB;}
	.st24{fill:#5892C3;}
	.st25{fill:#4177A6;}
	.st26{fill:#FFFFFF;stroke:#000000;stroke-width:0.5179;stroke-linecap:round;stroke-linejoin:round;stroke-miterlimit:10;}
	.st27{fill:#9E9190;}
	.st28{fill:#77CCDC;}
	.st29{fill:#070606;}
	.st30{fill:#D5D2CA;}
	.st31{fill:#BAB5AC;}
	.st32{fill:#E5E3DE;}
	.st33{fill:#E3E1DB;}
	.st34{fill:#C6C1B8;}
	.st35{fill:#AFA9A0;}
	.st36{fill:#97318F;}
	.st37{fill:#FAD90D;}
	.st38{fill:#F4BE08;}
	.st39{fill:#480143;}
	.st40{fill:none;stroke:#3D0C42;stroke-width:1.0357;stroke-linecap:round;stroke-miterlimit:10;}
	.st41{fill:#BABABA;stroke:#3D0C42;stroke-width:1.0357;stroke-miterlimit:10;}
	.st42{opacity:0.15;fill:#3D0C42;}
	.st43{opacity:0.5;fill:#3D0C42;}
	.st44{fill:#BABABA;}
	.st45{clip-path:url(#SVGID_00000000900894717424401630000011115372791634842267_);}
	.st46{opacity:0.33;fill:#AF6553;stroke:#3D0C42;stroke-width:1.0357;stroke-linecap:round;stroke-miterlimit:10;}
	.st47{fill:#BABABA;stroke:#3D0C42;stroke-width:1.0357;stroke-linejoin:round;stroke-miterlimit:10;}
	.st48{fill:#FE120C;stroke:#3D0C42;stroke-width:1.0357;stroke-linejoin:round;stroke-miterlimit:10;}
	.st49{fill:#6D0C80;stroke:#3D0C42;stroke-width:1.0357;stroke-linecap:round;stroke-linejoin:round;stroke-miterlimit:10;}
	.st50{fill:#6D0C80;stroke:#3D0C42;stroke-width:1.2947;stroke-linecap:round;stroke-miterlimit:10;}
	.st51{fill:none;stroke:#3D0C42;stroke-width:1.2947;stroke-linejoin:round;stroke-miterlimit:10;}
	.st52{fill:none;stroke:#3D0C42;stroke-width:5.1786;stroke-linejoin:round;stroke-miterlimit:10;}
</style>
<g>
	<g>
		<path class="st0" d="M217.5,167.4c0-12.9-10.4-29.4-23.3-37.1c-7.3-4.3-13.8-4.8-18.1-2.1l0,0L155.3,141l36.3,50.6l20.7-12.6l0,0
			C215.6,176.9,217.5,173,217.5,167.4z"/>
		<path class="st0" d="M173.8,142.8c-12.9-7.6-23.3-3.4-23.3,9.5s10.4,29.4,23.3,37.1s23.3,3.4,23.3-9.5S186.6,150.4,173.8,142.8z"
			/>
		<path class="st1" d="M173.8,149.3c-9.3-5.5-16.8-2.4-16.8,6.8s7.5,21.2,16.8,26.7c9.3,5.5,16.8,2.4,16.8-6.8
			S183,154.8,173.8,149.3z"/>
		<path class="st2" d="M173.8,152.1c-7.8-4.6-14-2-14,5.7s6.3,17.8,14,22.3c7.8,4.6,14,2,14-5.7S181.5,156.7,173.8,152.1z"/>
		<path class="st3" d="M177.3,175.2c-7-4.1-12.7-13.2-12.7-20.2c0-2.3,0.6-4,1.6-5.3c-3.9,0.2-6.5,3-6.5,8c0,7.7,6.3,17.8,14,22.3
			c7.2,4.3,13.1,2.3,13.9-4.2C185.4,177.9,181.6,177.8,177.3,175.2z"/>
	</g>
	<path class="st4" d="M202.1,130.6c0,0-4-6.7-11.8-6.7l2.2,11.9L202.1,130.6z"/>
	<path class="st5" d="M140.7,17.8l-5-4.9l0,0c-1.2-1.4-3.7-1.2-6.7,0.6l-58,36c-4.6,2.9-8.7,8.7-9.2,13.1L50.6,166.6l74.7-46.3
		L135.9,21L140.7,17.8z"/>
	<path class="st0" d="M130.1,124.9l-74.7,46.3L66.5,67.1c0.5-4.4,4.6-10.2,9.2-13.1l58-36c4.6-2.9,7.9-1.6,7.5,2.7L130.1,124.9z"/>
	<polygon class="st5" points="128.1,112.6 63,153 71,68.2 136,27.8 	"/>
	<ellipse transform="matrix(0.6372 -0.7707 0.7707 0.6372 -0.6124 92.2643)" class="st6" cx="97.7" cy="46.8" rx="1.5" ry="0.7"/>
	<rect x="121.5" y="91.6" class="st7" width="46.8" height="35.9"/>
	<path class="st8" d="M152.4,77.2"/>
	<polygon class="st9" points="79,109.2 77.2,110.4 77.2,116.4 83.3,120.8 83.9,109.3 	"/>
	<path class="st9" d="M78.7,111.1l46.8,27l67.1-38.8L146,72.2L78.7,111.1z M142.8,124.3c-0.9,0.5-2.4,0.5-3.3,0
		c-0.9-0.5-0.9-1.4,0-1.9c0.9-0.5,2.4-0.5,3.3,0C143.7,122.9,143.7,123.8,142.8,124.3z M180.2,98.9c0.9-0.5,2.4-0.5,3.3,0
		c0.9,0.5,0.9,1.4,0,1.9c-0.9,0.5-2.4,0.5-3.3,0C179.3,100.2,179.3,99.4,180.2,98.9z M168.2,107.7c0.9,0.5,0.9,1.4,0,1.9
		c-0.9,0.5-2.4,0.5-3.3,0c-0.9-0.5-0.9-1.4,0-1.9C165.8,107.2,167.3,107.2,168.2,107.7z M161.9,88.3c0.9-0.5,2.4-0.5,3.3,0
		c0.9,0.5,0.9,1.4,0,1.9c-0.9,0.5-2.4,0.5-3.3,0C161,89.7,161,88.8,161.9,88.3z M146.6,97.1c0.9-0.5,2.4-0.5,3.3,0
		c0.9,0.5,0.9,1.4,0,1.9c-0.9,0.5-2.4,0.5-3.3,0C145.7,98.5,145.7,97.6,146.6,97.1z M133.4,106.3l4.1-2.4c2.2-1.3,5.9-1.3,8.1,0
		l10.2,5.9c2.2,1.3,2.2,3.4,0,4.7l-4.1,2.4c-2.2,1.3-5.9,1.3-8.1,0l-10.2-5.9C131.1,109.7,131.1,107.6,133.4,106.3z M127.5,131.2
		c0.9,0.5,0.9,1.4,0,1.9c-0.9,0.5-2.4,0.5-3.3,0c-0.9-0.5-0.9-1.4,0-1.9C125.2,130.7,126.6,130.7,127.5,131.2z M121.2,111.8
		c0.9-0.5,2.4-0.5,3.3,0c0.9,0.5,0.9,1.4,0,1.9c-0.9,0.5-2.4,0.5-3.3,0C120.3,113.2,120.3,112.3,121.2,111.8z M106,120.6
		c0.9-0.5,2.4-0.5,3.3,0c0.9,0.5,0.9,1.4,0,1.9c-0.9,0.5-2.4,0.5-3.3,0C105.1,122,105.1,121.2,106,120.6z"/>
	<polygon class="st10" points="105.3,173.9 122.3,183.7 122.3,213.6 105.3,203.8 	"/>
	<path class="st9" d="M123.5,137.9L123.5,137.9l-2.2-1.3l-0.4-0.2l-26.9-16.2l-14-8.4c-2.2-1.3-3.9-0.4-3.9,2.1v76.1
		c0,4.3,3.1,9.7,6.9,12l0.6,0.3c0.5,0.3,1,0.1,1-0.5v-4.3c0-1.2,0.9-1.7,2-1.1l0.8,0.5c1.1,0.6,2,2.2,2,3.4v2.1c0,1.9,1.3,4.1,3,5.1
		l30.9,18.5 M119.7,139.5c0.8,0.6,1.4,1.7,1.3,2.6c-0.1,0.9-0.8,1.1-1.6,0.6c-0.8-0.6-1.4-1.7-1.3-2.6
		C118.2,139.2,118.9,138.9,119.7,139.5z M110.7,187.5c1.1,0.7,2,2.2,2,3.4c0,1.2-0.9,1.7-2,1.1c-1.1-0.7-2-2.2-2-3.4
		S109.6,186.9,110.7,187.5z M93.8,205.4c-0.9-0.5-1.6-1.7-1.6-2.7s0.7-1.4,1.6-0.8c0.9,0.5,1.6,1.7,1.6,2.7
		C95.4,205.6,94.7,206,93.8,205.4z M101.7,176c-0.8-0.6-1.4-1.7-1.3-2.6s0.8-1.1,1.6-0.6c0.8,0.6,1.4,1.7,1.3,2.6
		S102.5,176.5,101.7,176z M101.7,132c-0.8-0.6-1.4-1.7-1.3-2.6s0.8-1.1,1.6-0.6c0.8,0.6,1.4,1.7,1.3,2.6
		C103.3,132.3,102.5,132.6,101.7,132z M110.7,206.5c-2.2-1.3-3.9-4.4-3.9-6.8s1.8-3.4,3.9-2.1c2.2,1.3,3.9,4.4,3.9,6.8
		C114.7,206.9,112.9,207.8,110.7,206.5z M119.5,186.6c-0.8-0.6-1.4-1.7-1.3-2.6c0.1-0.9,0.8-1.1,1.6-0.6c0.8,0.6,1.4,1.7,1.3,2.6
		C121,186.9,120.3,187.2,119.5,186.6z M121.7,177.9c0,1.3-0.9,1.8-2.1,1.1c-1.2-0.7-2.1-2.3-2.1-3.6v-4c0-1.3,0.9-1.8,2.1-1.1
		c1.2,0.7,2.1,2.3,2.1,3.6V177.9z"/>
	<polygon class="st11" points="120.4,226.4 120.3,166.1 124.6,168.2 123.1,226.9 	"/>
	<path class="st9" d="M190.8,97l-2.6,1.5l-0.9,0.5l-64.5,37.2l0.8,88.5c1.1-0.6,2-2.1,2-3.4v-6.1c0-1.2,0.7-2.7,1.8-3.4
		c1.2-0.8,2.1-0.3,2.1,1v6.2c0,1.2,0.9,1.7,2,1.1l46.7-26.9c1.1-0.6,2-2.1,2-3.4v-6.1c0-1.2,0.7-2.7,1.8-3.4c1.2-0.8,2.1-0.3,2.1,1
		v6.2c0,1.2,0.9,1.7,2,1.1l2.6-1.5L190.8,97z M146.7,133.1c0-1.6,1.1-3.4,2.4-4.2l6.7-3.9c1.4-0.8,2.4-0.1,2.4,1.4v7.9
		c0,1.6-1.1,3.4-2.4,4.2l-6.7,3.9c-1.4,0.8-2.4,0.1-2.4-1.4V133.1z M128,202.6c-0.9,0.5-1.6,0.1-1.6-0.9s0.7-2.2,1.6-2.7
		c0.9-0.5,1.6-0.1,1.6,0.9S128.9,202.1,128,202.6z M126.8,194.7v-22.5c0-0.8,0.6-1.8,1.3-2.2s1.3-0.1,1.3,0.7v22.5
		c0,0.8-0.6,1.8-1.3,2.2S126.8,195.6,126.8,194.7z M128,140.7c-0.9,0.5-1.6,0.1-1.6-0.9c0-1,0.7-2.2,1.6-2.7
		c0.9-0.5,1.6-0.1,1.6,0.9C129.6,138.9,128.9,140.2,128,140.7z M176.1,175.2c0,1.2-0.9,2.8-2,3.4l-38.5,22.2c-1.1,0.6-2,0.1-2-1.1
		v-30.2c0-2.5,1.8-5.5,3.9-6.8l34.6-19.9c2.2-1.2,3.9-0.2,3.9,2.3V175.2z M181.8,106.1c0.9-0.5,1.6-0.1,1.6,0.9s-0.7,2.2-1.6,2.7
		c-0.9,0.5-1.6,0.1-1.6-0.9S180.9,106.6,181.8,106.1z M183.3,139.7v22.5c0,0.8-0.6,1.8-1.3,2.2c-0.7,0.4-1.3,0.1-1.3-0.7v-22.5
		c0-0.8,0.6-1.8,1.3-2.2C182.8,138.5,183.3,138.9,183.3,139.7z M182,171.5c-0.9,0.5-1.6,0.1-1.6-0.9s0.7-2.2,1.6-2.7
		c0.9-0.5,1.6-0.1,1.6,0.9S182.9,171,182,171.5z M192,147.8c-0.8,0.4-1.4-0.1-1.3-1.1c0.1-1,0.8-2.1,1.6-2.5
		c0.8-0.4,1.4,0.1,1.3,1.1C193.5,146.3,192.8,147.4,192,147.8z"/>
	<path class="st12" d="M121.2,226.9h1.8l2.3-1.4c1.1-0.6,2-2.1,2-3.4v-6.1c0-1.2,0.7-2.7,1.8-3.4c1.2-0.8,2.1-0.3,2.1,1v6.2
		c0,1.2,0.9,1.7,2,1.1l46.7-26.9c1.1-0.6,2-2.1,2-3.4v-6.1c0-1.2,0.7-2.7,1.8-3.4c1.2-0.8,2.1-0.3,2.1,1v6.2c0,1.2,0.9,1.7,2,1.1
		l2.6-1.5l2.2-90.2l-2.6,1.5l-0.9,0.5l-64.5,37.2l-1.1,0.6 M148.5,134c0-1.6,1.1-3.4,2.4-4.2l6.7-3.9c1.4-0.8,2.4-0.1,2.4,1.4v7.9
		c0,1.6-1.1,3.4-2.4,4.2l-6.7,3.9c-1.4,0.8-2.4,0.1-2.4-1.4V134z M129.9,203.5c-0.9,0.5-1.6,0.1-1.6-0.9s0.7-2.2,1.6-2.7
		c0.9-0.5,1.6-0.1,1.6,0.9S130.7,203,129.9,203.5z M128.6,195.7v-22.5c0-0.8,0.6-1.8,1.3-2.2c0.7-0.4,1.3-0.1,1.3,0.7v22.5
		c0,0.8-0.6,1.8-1.3,2.2C129.2,196.8,128.6,196.5,128.6,195.7z M129.9,141.6c-0.9,0.5-1.6,0.1-1.6-0.9c0-1,0.7-2.2,1.6-2.7
		c0.9-0.5,1.6-0.1,1.6,0.9C131.4,139.9,130.7,141.1,129.9,141.6z M178,176.2c0,1.2-0.9,2.8-2,3.4l-38.5,22.2c-1.1,0.6-2,0.1-2-1.1
		v-30.2c0-2.5,1.8-5.5,3.9-6.8l34.6-19.9c2.2-1.2,3.9-0.2,3.9,2.3V176.2z M183.7,107c0.9-0.5,1.6-0.1,1.6,0.9s-0.7,2.2-1.6,2.7
		c-0.9,0.5-1.6,0.1-1.6-0.9S182.8,107.5,183.7,107z M185.2,140.6v22.5c0,0.8-0.6,1.8-1.3,2.2s-1.3,0.1-1.3-0.7v-22.5
		c0-0.8,0.6-1.8,1.3-2.2S185.2,139.8,185.2,140.6z M183.9,172.4c-0.9,0.5-1.6,0.1-1.6-0.9s0.7-2.2,1.6-2.7c0.9-0.5,1.6-0.1,1.6,0.9
		S184.7,171.9,183.9,172.4z M193.8,148.7c-0.8,0.4-1.4-0.1-1.3-1.1c0.1-1,0.8-2.1,1.6-2.5c0.8-0.4,1.4,0.1,1.3,1.1
		C195.3,147.2,194.6,148.3,193.8,148.7z"/>
	<g>
		<path class="st13" d="M152.1,201.1l-0.4,0.2l0,0l0,0l0,0l0,0l0,0l0,0l0,0l0,0l0,0l0,0l0,0l0,0l0,0l0,0l0,0l0,0l0,0l0,0l0,0l0,0
			l0,0l0,0l0,0l0,0l0,0v0l0,0l0,0v0v0l0,0v0l0,0.2v0v0v0l0,0l0,0l0,0l0,0l0,0l0,0l0,0l0,0l0,0l0,0l0,0l0,0l0,0l0,0l0,0h0l0,0h0l0,0
			l0,0l0,0l0,0l0,0l0,0l0,0l0,0l0,0l0,0l0,0l0,0l0,0l0,0l0,0l0,0l0,0l0,0l0,0l0,0l0,0l0,0h0l0,0l0,0h0l0,0v0l0,0l0,0l0,0l0,0l0,0
			l0.8-0.1l0,0l0,0l0,0l0,0l0,0l0,0l0,0l0,0l0,0l0,0l0,0l0,0l0,0l0,0l0,0l0,0l0,0l0,0l0,0l0,0l0,0l0,0l0,0l0,0l0,0l0,0l0,0l0,0l0,0
			l0,0l0,0l0,0l0,0l0,0l0,0l0,0l0,0l0,0l0,0l0,0l0,0l0,0l0,0l0,0l0,0l0,0l0,0l0,0l0,0l0,0v0l0,0l0,0v0.5v0v0v0v0v0v0v0l0,0v0v0v0
			l0,0l0,0l0,0l0,0l0,0l0,0v0v0l0,0l0,0l0,0l0,0l0,0l0,0l0,0l0,0l0,0l0,0l0,0l0,0l0,0l0,0l0,0l0,0l0,0l0,0l0,0l0,0l0,0l0,0l0,0l0,0
			l0,0l0,0.1l0,0l0,0l0,0l0,0l0,0l0,0.1l0,0.1l0,0l0,0l0,0l0,0l0,0.1l0,0l0,0l0,0l0,0l0,0l0,0l0,0l0,0l0,0l0,0l0,0l0,0l0,0l0,0l0,0
			l0,0l0,0l0,0l0,0l0,0l0,0l0,0l0,0l0,0l0,0l0,0l0,0l0,0l0,0l-0.9,0.5l0,0l0,0l0,0l0,0l0,0l0,0l0,0l0,0l0,0l0,0l0,0l0,0l0,0l0,0l0,0
			l0,0l0,0l0,0l0,0l0,0l0,0l0,0l0,0l0,0l0,0l0,0l0,0l0,0l0,0l0,0l0,0l0,0l0,0l0,0l0,0l0,0l0,0l0,0l0,0l0,0l0,0l0,0l0,0l0,0l0,0l0,0
			l0,0l0,0l0,0l0,0l0,0l0,0l0,0l0,0l0,0l0,0l0,0l0,0l0,0l0,0v0l0,0l0,0l0,0v0v0l0,0v0v0v0l0.7-0.7v0v0v0v0l0,0v0l0,0l0,0l0,0l0,0
			l0,0l0,0l0,0l0,0l0,0l0,0l0,0h0l0,0l0,0l0,0l0,0l0,0l0,0l0,0l0,0l0,0l0,0l0,0l0,0l0,0l0,0l0,0l0,0l0,0l0.7-0.4l0,0l0,0l0,0l0,0
			l0,0l0,0l0,0l0,0l0,0l0,0l0,0l0,0v0l0,0l0,0l0,0l0,0l0,0l0,0l0,0l0,0l0,0l0,0v0l0,0l0,0l0,0l0,0l0,0l0,0v0l0,0v0l0,0l0,0v0v0l0,0
			l0,0l0,0v0v0v0v0v0v0v0v0v0v0v0v0v0l0,0v0v0v0v0v0v0v0v0v0v0l0,0v0v0v0v0v0v0v0v0l0,0l0,0l0,0l0,0l0,0l0,0l0,0l0,0l0,0l0,0l0,0
			l0,0l0,0l0,0l0,0l0,0l0,0l0,0l0,0l0,0l0,0l0,0l0,0l0,0l0,0l-0.9,0.1l0,0l0,0l0,0l0,0l0,0l0,0l0,0l0,0l0,0l0,0l0,0l0,0l0,0l0,0l0,0
			l0,0l0,0l0,0l0,0l0,0l0,0l0,0l0,0l0,0l0,0l0,0l0,0l0,0l0,0l0,0l0,0l0,0l0,0l0,0l0,0l0,0l0,0l0,0l0,0l0,0l0,0l0,0l0,0v0l0,0v0l0,0
			v0l0,0v0v0v0v0v0l0-0.4v0v0v0l0,0v0v0v0v0v0l0,0v0v0v0v0l0,0v0v0l0,0v0v0l0,0v0v0l0,0l0,0l0,0l0,0l0,0l0,0l0,0l0,0l0,0l0,0l0,0
			l0,0l0,0l0,0l0,0l0-0.1l0,0l0,0l0,0l0,0l0,0l0,0l0,0l0,0l0,0l0,0l0-0.1l0,0l0,0l0,0l0,0l0,0l0,0l0,0l0,0l0,0l0,0l0,0l0,0l0,0l0,0
			l0,0l0,0l0,0l0,0l0,0l0,0l0,0l0,0l0,0l0,0l0,0l0,0l0,0l0,0l0.8-0.5l0,0l0,0l0,0l0,0l0,0l0,0l0,0l0,0l0,0l0,0l0,0l0,0l0,0l0,0l0,0
			l0,0l0,0l0,0l0,0l0,0l0,0l0,0l0,0l0,0l0,0l0,0l0,0l0,0l0,0l0,0l0,0l0,0l0,0l0,0l0,0l0,0l0,0l0,0l0,0l0,0l0,0l0,0l0,0l0,0l0,0l0,0
			l0,0l0,0l0,0l0,0l0,0l0,0l0,0l0,0l0,0l0,0l0,0l0,0v0v0l0,0l0,0l0,0v0v0l0,0l0,0v0l0,0v0l0,0v0v0v0v0v0v0v0v0v0v0v0v0l-0.8,0.7l0,0
			v0v0v0v0v0v0v0l0,0l0,0l0,0l0,0l0,0l0,0l0,0l0,0l0,0l0,0l0,0l0,0l0,0l0,0l0,0l0,0l0,0l0,0l0,0l0,0h0l0,0h0l0,0l0,0l0,0l0,0l0,0
			l0,0L152.1,201.1L152.1,201.1L152.1,201.1L152.1,201.1L152.1,201.1L152.1,201.1L152.1,201.1z"/>
		<path class="st13" d="M155.9,198l0.8-0.5v5.1l-0.8,0.5l0-2.1v0l0,0v0l0,0v0v0l0,0v0v0l0,0v0l0,0l0,0l0,0l0,0l0,0l0,0h0l0,0l0,0
			l0,0l0,0l0,0l0,0l0,0l-0.2,1.1l-0.7,0.4l-0.2-0.9l0,0l0,0v0l0,0l0,0l0,0l0,0l0,0h0l0,0l0,0l0,0l0,0l0,0l0,0l0,0v0l0,0v0v0l0,0v0
			l0,0v0l0,0l0,2.1l-0.8,0.4l0-5.1l0.8-0.5l0.6,1.9v0v0l0,0v0l0,0v0l0,0l0,0l0,0l0,0l0,0l0,0h0l0,0l0,0l0,0l0,0l0,0l0,0v0l0,0l0,0
			l0,0l0,0l0,0l0,0v0l0,0v0l0,0l0,0l0,0l0,0L155.9,198z"/>
		<path class="st13" d="M158.4,196.5l0.8-0.4l1,4.5l-0.8,0.5l-0.2-0.7l-0.9,0.5l-0.2,0.9l-0.8,0.5L158.4,196.5z M158.8,198.1
			L158.8,198.1L158.8,198.1L158.8,198.1L158.8,198.1L158.8,198.1L158.8,198.1L158.8,198.1L158.8,198.1l-0.3,1.7v0l0,0v0v0l0,0l0,0
			l0,0v0h0l0,0l0,0h0l0,0l0,0l0,0l0,0l0,0l0,0l0,0l0,0l0,0l0,0l0,0l0,0l0,0l0,0l0,0l0,0l0,0l0,0l0,0l0,0l0,0l0,0l0,0l0,0l0,0l0,0
			l0,0l0,0l0,0l0,0l0,0l0,0l0,0l0,0l0,0l0,0l0,0l0,0l0,0l0,0l0,0l0,0l0,0l0,0l0,0l0,0l0,0l0,0l0,0l0,0l0,0l0,0l0,0l0,0v0l0,0v0v0v0
			v0v0v0l-0.1-0.7L158.8,198.1L158.8,198.1L158.8,198.1L158.8,198.1L158.8,198.1L158.8,198.1L158.8,198.1L158.8,198.1L158.8,198.1
			L158.8,198.1z"/>
		<path class="st13" d="M163.1,193.9L163.1,193.9L163.1,193.9L163.1,193.9L163.1,193.9l0.1,0l0,0l0,0l0,0l0,0l0,0l0,0l0,0l0,0l0,0
			l0,0l0,0l0,0l0,0l0,0l0,0l0,0l0,0l0,0l0,0l0,0l0,0l0,0l0,0l0,0l0,0l0,0l0,0l0,0l0,0l0,0l0,0l0,0l0,0l0,0l0,0l0,0v0v0l0,0v0v0v0v0
			l0,0v0v0v0v0v0l0,0.7l0,0v0v0v0v0v0l0,0v0l0,0v0l0,0l0,0v0l0,0v0v0v0l0,0l0,0v0v0l0,0v0v0l0,0l0,0l0,0l0,0l0,0l0,0l0,0l0,0l0,0
			l0,0l0,0l0,0l0,0v0l0,0l0,0l0,0l0,0v0v0l0,0l0,0l0,0l0,0l0,0l0,0l0,0l0,0l0,0l0,0l0,0l0,0l0,0l0,0l0,0l0,0l0,0l0,0l0,0l0,0v0l0,0
			l0,0l0,0l0,0l0,0l0,0l0,0l0,0l0,0l0,0l0,0l0,0l0,0l0,0l0,0l0,0l0,0l0,0l0,0l0,0l0,0l0,0l0,0l0,0l0,0l0,0l0,0l0,0l0,0l0,0l0,0l0,0
			l0,0l0,0l0,0l0,0l0,0l0,0l0,0l0,0l0,0l0,0l0,0l0,0l0,0l0,0l0,0l0.9,1.7l-0.9,0.5l-0.9-1.6l-0.2,0.1l0,2.2l-0.8,0.5l0-5.1l1.6-0.9
			l0,0l0,0l0,0l0,0l0,0l0,0l0,0l0,0l0,0l0,0l0,0l0,0L163.1,193.9L163.1,193.9L163.1,193.9L163.1,193.9z M162.8,195L162.8,195
			L162.8,195L162.8,195L162.8,195l-0.1,0l0,0l0,0l0,0l0,0l0,0l0,0l-0.8,0.4l0,1.1l0.8-0.5l0,0l0,0l0,0l0,0l0,0l0,0l0,0l0,0l0,0l0,0
			l0,0l0,0l0,0l0,0l0,0l0,0l0,0l0,0v0l0,0l0,0l0,0l0,0l0,0l0,0l0,0l0,0l0,0v0v0l0,0l0,0l0,0l0,0l0,0l0,0l0,0v0l0,0v0l0,0v0v0v0l0,0
			v0l0,0v0v0v0v0v0v0v0v0l0,0l0,0v0v0v0v0v0v-0.3v0v0v0v0v0l0,0v0v0v0v0v0v0v0v0v0l0,0v0v0v0v0l0,0v0v0v0v0v0l0,0l0,0v0v0v0l0,0l0,0
			l0,0l0,0l0,0L162.8,195L162.8,195L162.8,195L162.8,195L162.8,195L162.8,195L162.8,195L162.8,195L162.8,195L162.8,195L162.8,195z"
			/>
		<path class="st13" d="M167.3,191.4v0.9l-1,0.6l0,4.1l-0.8,0.5l0-4.1l-1,0.6V193L167.3,191.4z"/>
		<path class="st13" d="M168,191l0.8-0.4l0,5.1l-0.8,0.4L168,191z"/>
	</g>
	<g>
		<path class="st13" d="M171.1,187.1l-28.5,16.4c-0.9,0.5-1.6,1.8-1.6,2.8v5.6c0,1,0.7,1.5,1.6,0.9l28.5-16.4
			c0.9-0.5,1.6-1.8,1.6-2.8v-5.6C172.7,187,172,186.6,171.1,187.1z M144.7,208.6c0.1,0,0.4,0.1,0.7,0c0-0.1,0-0.2,0-0.3
			c0.1-0.4,0.4-0.8,0.7-1c0.3-0.1,0.5,0.1,0.5,0.5c-0.1,0.4-0.4,0.8-0.7,1c0,0-0.1,0-0.1,0l0,0c0,0,0,0,0,0c-0.1,0-0.8,0.1-1.3,0.1
			c-0.5,0.6-1.2,1.3-1.3,1.4c0,0,0,0,0,0l0,0c0,0-0.1,0.1-0.1,0.1c-0.3,0.2-0.6,0.2-0.7-0.2c-0.1-0.3,0.2-0.8,0.5-1.1
			c0.3-0.2,0.6-0.2,0.7,0.2c0,0.1,0,0.2,0,0.4c0.3-0.3,0.5-0.6,0.7-0.8l0,0c0,0,0,0,0,0c-0.5-0.1-0.9-0.2-0.9-0.2
			c-0.9-0.3-1-0.5-1-0.5l2.2,0.2l2.2-2.7c0,0-0.1,0.3-1,1.6C145.6,207.3,145.2,207.9,144.7,208.6
			C144.7,208.6,144.7,208.6,144.7,208.6L144.7,208.6z M143.8,205.2v0.2l-0.5,0.3v-0.3l0.3-0.2v0.2L143.8,205.2z M145.9,204.2v1.9
			l-3.1,1.8V206L145.9,204.2z M144.7,204.6v0.2l-0.5,0.3v-0.2l0.1-0.1v-0.2l0.3-0.2v0.2L144.7,204.6z M145.1,204.6v-0.2l0.2-0.1
			v-0.2l0.3-0.2v0.3L145.1,204.6z M145.1,207v-0.2l0.5-0.3v0.2v0.2l-0.3,0.2v-0.2L145.1,207z M144.1,207.5v-0.2l0.5-0.3v0.2
			l-0.1,0.1v0.2l-0.3,0.2v-0.2L144.1,207.5z M143.8,207.5v0.2l-0.2,0.1v0.2l-0.3,0.2V208v-0.2L143.8,207.5z M172.2,193.9
			c0,0.7-0.5,1.6-1.1,2l-23.4,13.5v-8.2l23.4-13.5c0.6-0.4,1.1-0.1,1.1,0.7V193.9z"/>
		<path class="st13" d="M145.3,205.8c0.1-0.1,0.2-0.2,0.2-0.3c0-0.1-0.1-0.2-0.2-0.1c-0.1,0.1-0.2,0.2-0.2,0.3
			C145.1,205.8,145.2,205.8,145.3,205.8z"/>
		<path class="st13" d="M143.6,206.8c0.1-0.1,0.2-0.2,0.2-0.3c0-0.1-0.1-0.2-0.2-0.1c-0.1,0.1-0.2,0.2-0.2,0.3
			C143.4,206.8,143.5,206.8,143.6,206.8z"/>
		<path class="st13" d="M142.8,209.4c-0.2,0.2-0.4,0.5-0.3,0.7c0,0.2,0.2,0.3,0.5,0.1c0.2-0.2,0.4-0.5,0.3-0.7
			C143.3,209.3,143.1,209.3,142.8,209.4z"/>
		<path class="st13" d="M144.4,206.5c0.1-0.1,0.2-0.2,0.3-0.3c0,0,0-0.1,0-0.1c0,0-0.1,0-0.1,0c-0.1,0.1-0.1,0.2-0.2,0.2
			c-0.1,0.1-0.2,0.1-0.2,0c0,0-0.1,0-0.1,0c0,0,0,0.1,0,0.1C144.2,206.6,144.3,206.6,144.4,206.5z"/>
		<path class="st13" d="M144.4,208.6c-0.1,0-0.1,0.1-0.1,0.2c0,0.1,0.1,0.1,0.1,0.1c0.1,0,0.1-0.1,0.1-0.2
			C144.5,208.5,144.5,208.5,144.4,208.6z"/>
		<path class="st13" d="M145.8,208.6c0.2-0.1,0.4-0.4,0.5-0.6c0-0.3-0.1-0.4-0.3-0.3c-0.2,0.1-0.4,0.4-0.5,0.6
			C145.5,208.5,145.6,208.7,145.8,208.6z"/>
	</g>
	<path class="st8" d="M123.5,137.7"/>
	<line class="st8" x1="190" y1="99.4" x2="190" y2="188.3"/>
	<g>
		<defs>
			<path id="SVGID_1_" d="M121.2,226.9l4.2-1.4c1.1-0.6,2-2.1,2-3.4v-6.1c0-1.2,0.7-2.7,1.8-3.4c1.2-0.8,2.1-0.3,2.1,1v6.2
				c0,1.2,0.9,1.7,2,1.1l46.7-26.9c1.1-0.6,2-2.1,2-3.4v-6.1c0-1.2,0.7-2.7,1.8-3.4c1.2-0.8,2.1-0.3,2.1,1v6.2c0,1.2,0.9,1.7,2,1.1
				l2.6-1.5l2.2-90.2l-2.6,1.5l-0.9,0.5l-64.5,37.2l-1.1,0.6 M148.5,134c0-1.6,1.1-3.4,2.4-4.2l6.7-3.9c1.4-0.8,2.4-0.1,2.4,1.4v7.9
				c0,1.6-1.1,3.4-2.4,4.2l-6.7,3.9c-1.4,0.8-2.4,0.1-2.4-1.4V134z M129.9,203.5c-0.9,0.5-1.6,0.1-1.6-0.9s0.7-2.2,1.6-2.7
				c0.9-0.5,1.6-0.1,1.6,0.9S130.7,203,129.9,203.5z M128.6,195.7v-22.5c0-0.8,0.6-1.8,1.3-2.2c0.7-0.4,1.3-0.1,1.3,0.7v22.5
				c0,0.8-0.6,1.8-1.3,2.2C129.2,196.8,128.6,196.5,128.6,195.7z M129.9,141.6c-0.9,0.5-1.6,0.1-1.6-0.9c0-1,0.7-2.2,1.6-2.7
				c0.9-0.5,1.6-0.1,1.6,0.9C131.4,139.9,130.7,141.1,129.9,141.6z M178,176.2c0,1.2-0.9,2.8-2,3.4l-38.5,22.2c-1.1,0.6-2,0.1-2-1.1
				v-30.2c0-2.5,1.8-5.5,3.9-6.8l34.6-19.9c2.2-1.2,3.9-0.2,3.9,2.3V176.2z M183.7,107c0.9-0.5,1.6-0.1,1.6,0.9s-0.7,2.2-1.6,2.7
				c-0.9,0.5-1.6,0.1-1.6-0.9S182.8,107.5,183.7,107z M185.2,140.6v22.5c0,0.8-0.6,1.8-1.3,2.2s-1.3,0.1-1.3-0.7v-22.5
				c0-0.8,0.6-1.8,1.3-2.2S185.2,139.8,185.2,140.6z M183.9,172.4c-0.9,0.5-1.6,0.1-1.6-0.9s0.7-2.2,1.6-2.7
				c0.9-0.5,1.6-0.1,1.6,0.9S184.7,171.9,183.9,172.4z M193.8,148.7c-0.8,0.4-1.4-0.1-1.3-1.1c0.1-1,0.8-2.1,1.6-2.5
				c0.8-0.4,1.4,0.1,1.3,1.1C195.3,147.2,194.6,148.3,193.8,148.7z"/>
		</defs>
		<clipPath id="SVGID_00000093898399783144169460000004648582769696088758_">
			<use xlink:href="#SVGID_1_"  style="overflow:visible;"/>
		</clipPath>
		<g style="clip-path:url(#SVGID_00000093898399783144169460000004648582769696088758_);">
			<path class="st13" d="M115.4,160.5c0.1-0.1,0.2-0.1,0.3-0.2c0,0,0.1-0.1,0.2-0.1c0.9-0.5,1.7-1.8,1.7-2.9s-0.8-1.5-1.7-1
				c-0.9,0.5-1.7,1.8-1.7,2.9c0,0.5-0.4,1.1-0.8,1.4c-0.4,0.3-0.8,0-0.8-0.5c0-1.4,0.7-3,1.6-4.2c0.5-1.6,0.2-2.9-0.8-3.2
				c-1.2-0.3-2.8,0.9-3.7,2.8c-0.3,0.6-0.8,0.9-1.1,0.8c-0.4-0.1-0.4-0.6-0.2-1.2c0.1-0.2,0.2-0.4,0.3-0.6c-0.4-1.3-1.6-1.6-3-0.8
				c-1.7,1-3.1,3.4-3.1,5.4c0,0,0,0.1,0,0.1c0,0,0,0,0,0c0,0.8-0.2,1.8-0.7,2.7c-0.5,0.9-1.1,1.6-1.8,2.1c-0.2,0.4-0.6,0.8-0.9,1
				c-0.7,0.4-1.2,0.1-1.2-0.7c0-0.8,0.6-1.7,1.2-2.1c0.4-0.2,0.7-0.2,0.9-0.1c0.3-0.2,0.5-0.5,0.7-0.8c0.2-0.4,0.3-0.8,0.3-1.1
				c0-0.1,0-0.1,0-0.2c0,0,0,0,0-0.1c0-2-1.4-2.8-3.1-1.8c-1.5,0.8-2.7,2.8-3,4.6c0.3,0.1,0.5,0.3,0.7,0.5c0.3,0.3,0.2,0.9-0.2,1.4
				c-0.4,0.5-0.9,0.7-1.1,0.5c-1-0.9-2.8-0.2-4.1,1.6c-1.3,1.8-1.6,4.1-0.6,5c0,0,0.1,0.1,0.1,0.1c0.4-0.3,0.8-0.6,1.2-0.8
				c1.2-0.7,2.4-0.9,3.4-0.5c0.3,0.1,0.4,0.7,0.1,1.3c-0.3,0.6-0.8,0.9-1.1,0.8c-0.7-0.3-1.5-0.1-2.3,0.4c-2,1.1-3.6,3.9-3.6,6.2
				c0,2.3,1.6,3.2,3.6,2.1c0.1,0,0.1-0.1,0.2-0.1c0.1-0.1,0.3-0.2,0.4-0.3c0,0,0.1,0,0.1-0.1l16.1-9.3c-0.3-0.4-0.5-1-0.5-1.7
				c0-2.1,1.4-4.6,3.2-5.7c0.2-0.4,0.6-0.8,0.9-1c0.7-0.4,1.2-0.1,1.2,0.7s-0.6,1.7-1.2,2.1c-0.4,0.2-0.7,0.2-0.9,0
				c-0.9,0.6-1.6,1.8-1.6,2.9c0,1.1,0.8,1.5,1.7,1c0,0,0,0,0,0l4.7-2.7c0,0,0.1,0,0.1-0.1c0,0,0.1-0.1,0.1-0.1c1.1-0.6,2-2.2,2-3.5
				c0-1.3-0.9-1.8-2-1.2c-0.4,0.3-0.8,0-0.8-0.5C114.6,161.4,115,160.7,115.4,160.5z M91.9,169.6c-0.7,0.4-1.2,0.1-1.2-0.7
				c0-0.8,0.6-1.7,1.2-2.1c0.7-0.4,1.2-0.1,1.2,0.7C93.2,168.3,92.6,169.2,91.9,169.6z M90.8,178.5c-0.7,0.4-1.2,0.1-1.2-0.7
				c0-0.8,0.6-1.7,1.2-2.1c0.7-0.4,1.2-0.1,1.2,0.7C92.1,177.1,91.5,178.1,90.8,178.5z M97.9,166.9L97.9,166.9
				c0.3-0.3,0.6-0.5,0.9-0.6c0.3,0,0.6,0.1,0.7,0.4c0.1,0.3,0.1,0.7,0,1.1c-0.1,0.4-0.4,0.8-0.7,1.2c-0.2,0.2-0.3,0.3-0.5,0.4
				c-0.2,0.1-0.3,0.1-0.5,0.2c-0.3,0-0.6-0.1-0.7-0.4C97,168.6,97.3,167.6,97.9,166.9z M103.4,170.5c-0.5,1.9-1.8,3.7-3.2,4.5
				c-0.4,0.2-0.8,0.4-1.2,0.4c-0.9,0.1-1.6-0.2-1.9-0.9c-0.4-0.7-0.4-1.8-0.1-3c0.2-0.6,0.6-1.1,1-1.2c0.4-0.1,0.6,0.3,0.5,0.9
				c-0.2,0.6-0.1,1.2,0.1,1.6c0.2,0.4,0.6,0.6,1,0.5c0.9-0.1,2-1.3,2.3-2.6c0.2-0.6,0.6-1.1,1-1.2
				C103.4,169.5,103.6,170,103.4,170.5z M104,168.3c-0.7,0.4-1.2,0.1-1.2-0.7c0-0.8,0.6-1.7,1.2-2.1c0.7-0.4,1.2-0.1,1.2,0.7
				C105.3,166.9,104.7,167.9,104,168.3z M110.7,158.4C110.7,158.4,110.7,158.4,110.7,158.4c-0.7,1.5-1.7,2.6-2.8,3.2
				c-0.6,0.4-1.2,0.5-1.8,0.4c-1.5-0.3-2-2.4-1-4.7c0.2-0.6,0.7-1,1.1-0.9c0.4,0.1,0.5,0.6,0.2,1.2c-0.5,1.2-0.3,2.3,0.5,2.4
				c0.8,0.1,1.8-0.7,2.3-1.9c0-0.1,0.1-0.2,0.1-0.2c0-0.1,0-0.1,0-0.2c0-0.8,0.6-1.7,1.2-2.1c0.7-0.4,1.2-0.1,1.2,0.7
				C112,157,111.4,158,110.7,158.4z"/>
			<path class="st13" d="M222.3,97.2c-0.9,0.5-1.7,1.3-2.3,2.3c-0.3,0.5-0.8,0.8-1.1,0.6c-0.3-0.2-0.2-0.8,0.1-1.4
				c0.9-1.5,2.1-2.7,3.4-3.4c0.4-0.2,0.8-0.4,1.2-0.5c0-0.1,0-0.1,0.1-0.2c1-2,0.7-4-0.6-4.3c-1.3-0.4-3.1,1-4.1,3
				c-0.3,0.6-0.8,0.9-1.1,0.8c-0.4-0.1-0.4-0.6-0.2-1.2c0.2-0.5,0.5-0.9,0.7-1.3c-0.3-1.5-1.6-1.9-3-1.1c-1.7,1-3.1,3.4-3.1,5.4
				c0,0,0,0,0,0.1c0,0.1,0,0.1,0,0.2c0,0.4,0.1,0.6,0.3,0.8c0.2,0.1,0.4,0.1,0.7,0c0.2-0.4,0.6-0.8,0.9-1c0.7-0.4,1.2-0.1,1.2,0.7
				c0,0.8-0.6,1.7-1.2,2.1c-0.4,0.2-0.7,0.2-0.9,0c-0.7,0.3-1.4,0.4-1.8,0c-0.5-0.3-0.7-1-0.7-1.9c0,0,0,0,0,0c0,0,0-0.1,0-0.1
				c0-2-1.4-2.8-3.1-1.8c-1.4,0.8-2.6,2.6-3,4.3c0.1,0.1,0.2,0.2,0.3,0.2c0.3,0.3,0.2,0.9-0.2,1.4c-0.4,0.5-0.9,0.7-1.1,0.5
				c-0.9-0.9-2.5-0.2-3.7,1.5c-1,1.4-1.4,3.2-0.8,4.2c1,0.1,1.6,0.9,1.6,2.3c0,0.5-0.4,1.1-0.8,1.4c-0.4,0.3-0.8,0-0.8-0.5
				c0-1.1-0.8-1.5-1.7-1c-0.9,0.5-1.7,1.8-1.7,2.9s0.8,1.5,1.7,1c0.1,0,0.1-0.1,0.2-0.1c0.1-0.1,0.2-0.1,0.3-0.2
				c0.4-0.3,0.8,0,0.8,0.5c0,0.5-0.4,1.1-0.8,1.4c-1.1,0.6-2,2.2-2,3.5c0,1.3,0.9,1.8,2,1.2c0,0,0.1,0,0.1-0.1c0,0,0.1-0.1,0.1-0.1
				l4.7-2.7c0,0,0,0,0,0c0.9-0.5,1.7-1.8,1.7-2.9c0-1-0.7-1.5-1.6-1c-0.2,0.4-0.6,0.8-0.9,1c-0.7,0.4-1.2,0.1-1.2-0.7
				s0.6-1.7,1.2-2.1c0.4-0.2,0.7-0.2,0.9,0c1.8-1,3.2-0.1,3.2,1.9c0,0.7-0.2,1.5-0.5,2.2l16.1-9.3c0,0,0.1,0,0.1-0.1
				c0.1-0.1,0.3-0.2,0.4-0.2c0.1,0,0.1-0.1,0.2-0.1c2-1.1,3.6-3.9,3.6-6.2C225.9,97,224.3,96,222.3,97.2z M221.1,92.3
				c0.7-0.4,1.2-0.1,1.2,0.7c0,0.8-0.6,1.7-1.2,2.1c-0.7,0.4-1.2,0.1-1.2-0.7C219.9,93.7,220.5,92.7,221.1,92.3z M213.5,101
				c0.1-0.4,0.4-0.8,0.7-1.1c0.3-0.3,0.6-0.5,0.9-0.5l0,0c0.6,0,0.9,0.6,0.6,1.5c-0.1,0.4-0.4,0.8-0.7,1.1c-0.1,0.1-0.3,0.3-0.5,0.4
				c-0.2,0.1-0.3,0.2-0.5,0.2c-0.3,0-0.5-0.1-0.7-0.4S213.4,101.4,213.5,101z M206.9,104c-0.6,0.7-1.2,1.3-1.8,1.6
				c-1.1,0.6-2.1,0.6-2.7-0.1c0,0,0,0,0,0c-0.7,0.4-1.2,0.1-1.2-0.7c0-0.8,0.6-1.7,1.2-2.1c0.7-0.4,1.2-0.1,1.2,0.7
				c0,0.1,0,0.1,0,0.2c0,0,0.1,0.1,0.1,0.1c0.5,0.6,1.6,0.3,2.3-0.8c0.8-1,1-2.4,0.5-3c-0.2-0.3-0.1-0.9,0.2-1.4
				c0.4-0.5,0.9-0.7,1.1-0.4C208.9,99.4,208.4,102,206.9,104z M207.8,107.1c0-0.8,0.6-1.7,1.2-2.1c0.7-0.4,1.2-0.1,1.2,0.7
				c0,0.8-0.6,1.7-1.2,2.1C208.4,108.2,207.8,107.9,207.8,107.1z M216,106c-0.4,1.2-1.1,2.3-1.9,3.2c-0.4,0.4-0.8,0.7-1.2,0.9
				c-1.4,0.8-2.7,0.6-3.2-0.7c-0.2-0.4,0.1-1.1,0.5-1.5c0.4-0.4,0.9-0.4,1,0c0.3,0.9,1.4,0.8,2.3-0.1c0.5-0.5,0.8-1.1,1-1.7
				c0.2-0.6,0.2-1.2,0.1-1.6c-0.2-0.4,0.1-1.1,0.5-1.5c0.4-0.4,0.9-0.4,1,0C216.4,103.7,216.4,104.8,216,106z M222.3,102.8
				c-0.7,0.4-1.2,0.1-1.2-0.7c0-0.8,0.6-1.7,1.2-2.1c0.7-0.4,1.2-0.1,1.2,0.7C223.5,101.4,222.9,102.4,222.3,102.8z"/>
			<path class="st13" d="M191.3,6.7l-2.7,1.5l-0.1,0.1v0l-23.4,13.5v-0.1c0,0,0,0-0.1,0c-3.2,1.9-6.7,0.8-6.7-2.2 M122.4,137.2
				L74.1,165v40.5l164.8-94.9V70.1l-47.6,27.4 M155.4,21.2 M175.9,93.9c-0.4,0.5-0.9,0.7-1.2,0.4c-0.2-0.3-0.6-0.4-1.1-0.3
				c-0.5,0.1-0.9,0.5-1.3,1c-0.4,0.5-0.7,1.1-0.8,1.7c-0.1,0.6,0,1.1,0.2,1.4c0.2,0.3,0.1,1-0.3,1.5c-0.4,0.5-0.9,0.7-1.2,0.4
				c-0.5-0.6-0.6-1.6-0.4-2.8c0.2-1,0.6-2,1.3-3c0-0.5-0.2-0.8-0.6-1c-0.4-0.2-0.8-0.1-1.3,0.2c-0.5,0.3-0.9,0.8-1.2,1.4
				c-0.3,0.6-0.5,1.2-0.4,1.7c0,0,0,0.1,0,0.1v4.6c0,2.1,1.5,2.9,3.3,1.9c1.5-0.9,2.9-2.9,3.2-4.8c-0.3-0.1-0.5-0.3-0.8-0.5
				c-0.3-0.3-0.2-0.9,0.2-1.5c0.4-0.5,0.9-0.8,1.2-0.5c0.5,0.5,1.2,0.6,2,0.2c0.8-0.3,1.6-1,2.3-2 M167.6,93 M179.9,95.2
				c-1,1.5-2.3,2.5-3.5,3c-0.3,0.1-0.6,0.2-0.8,0.2c-0.7,2.7-2.6,5.4-4.7,6.7c-2.5,1.5-4.7,0.5-4.9-2.2c0-0.1,0-0.2,0-0.2
				 M147.8,113.4c-0.3,3-2.4,6.4-4.9,7.9c-2.2,1.2-4.1,0.7-4.7-1.2c-1.4,1.4-3.1,2.1-4.4,1.7c-2-0.6-2.5-3.5-1.2-6.7 M143.8,114.4
				c0.2,0.1,0.4,0.4,0.4,0.8c0,0.8-0.6,1.8-1.3,2.2c-0.7,0.4-1.3,0.1-1.3-0.7c0-0.5,0.2-1,0.5-1.5 M135.4,114.4
				c-0.4,0.2-0.8,0.4-1.2,0.5c0,0.1,0,0.1-0.1,0.2c-1,2.1-0.7,4.2,0.6,4.5c1.4,0.4,3.3-1.1,4.3-3.2c0.3-0.6,0.8-1,1.2-0.9
				c0.4,0.1,0.5,0.7,0.2,1.3c-0.2,0.5-0.5,0.9-0.8,1.4c0.3,1.5,1.7,2,3.2,1.1c1.8-1,3.3-3.6,3.3-5.7v-0.2c0,0,0,0,0,0 M137.8,115.6
				c0,0.8-0.6,1.8-1.3,2.2c-0.7,0.4-1.3,0.1-1.3-0.7c0-0.8,0.6-1.8,1.3-2.2C137.2,114.4,137.8,114.8,137.8,115.6z M119.1,162.6
				c0,2.3-1.6,5.2-3.7,6.3c0,0-0.1,0-0.1,0.1c0,0-0.1,0.1-0.1,0.1l-23.7,13.6c0,0-0.1,0-0.1,0c-1.6,0.9-3,3.2-3,5.2
				c0,0.9,0.3,1.7,0.8,2c0.6,0.4,1.3,0.3,2.1-0.1c0.4-0.2,0.8,0,0.8,0.5c0,0.5-0.4,1.1-0.8,1.4c0,0,0,0,0,0
				c-1.2,0.7-2.4,0.8-3.3,0.2c-0.9-0.5-1.3-1.6-1.3-3.1c0-1.6,0.7-3.5,1.7-5c-1.7,0-2.9-1.4-2.9-3.7c0-2.2,1-4.7,2.5-6.6
				c-1.3-1.5-0.8-4.9,1.1-7.7c1.2-1.8,2.8-2.9,4.2-3.1c0.6-2.6,2.4-5.2,4.5-6.3c1.6-0.9,3.1-0.8,3.9,0.1c0.9-1.9,2.3-3.7,3.9-4.7
				c1.9-1.1,3.6-0.7,4.3,0.8c1.4-1.5,3-2.3,4.3-2c1.3,0.4,1.9,1.8,1.7,3.7c1.8-0.9,3.2-0.1,3.2,2c0,1.2-0.5,2.6-1.3,3.8
				C118.6,160.5,119.1,161.4,119.1,162.6z M226.3,108.4c0,1.4-0.4,3-1.3,4.6c-0.9,1.5-2,2.8-3.3,3.5c0,0,0,0,0,0
				c-0.4,0.3-0.8,0.1-0.8-0.4c0-0.5,0.3-1.1,0.8-1.4c0.8-0.5,1.6-1.3,2.1-2.3c0.6-1,0.9-2.1,0.8-3c0-1.9-1.4-2.6-3-1.7
				c0,0,0,0-0.1,0l-23.7,13.6c0,0-0.1,0-0.1,0.1c0,0-0.1,0.1-0.1,0.1c-2,1.2-3.7,0.2-3.7-2.1c0-1.2,0.5-2.6,1.2-3.8
				c-0.8-0.2-1.3-1-1.3-2.3c0-2,1.4-4.5,3.2-5.6c-0.2-1.6,0.4-3.8,1.7-5.7c1.3-1.8,2.9-2.9,4.3-3c0.7-2.4,2.4-4.7,4.3-5.8
				c1.6-0.9,3.1-0.8,3.9,0.1c0.9-1.9,2.3-3.7,3.9-4.7c2.1-1.2,3.9-0.7,4.5,1.2c1.4-1.3,2.9-2,4.2-1.7c1.9,0.5,2.4,3.4,1.1,6.4
				c1.5,0.2,2.5,1.5,2.5,3.7c0,2.3-1.2,5.1-2.9,7C225.6,105.7,226.3,106.8,226.3,108.4z"/>
			<path class="st13" d="M142.5,116.2C142.4,116.2,142.4,116.2,142.5,116.2c0,0.3,0.2,0.4,0.4,0.3c0.2-0.1,0.4-0.4,0.4-0.7
				c-0.1,0.1-0.3,0.2-0.4,0.3C142.7,116.2,142.6,116.2,142.5,116.2z"/>
			<path class="st13" d="M136.1,116.6c0,0.3,0.2,0.4,0.4,0.2c0.2-0.1,0.4-0.4,0.4-0.7c0-0.3-0.2-0.4-0.4-0.2
				C136.3,116,136.1,116.3,136.1,116.6z"/>
			<polygon class="st13" points="188.6,8.2 188.6,8.2 188.6,8.2 			"/>
		</g>
	</g>
	<line class="st15" x1="129.9" y1="140.6" x2="161.9" y2="159.1"/>
	<path class="st16" d="M186.2,175.5l-54,31.2c-2.6,1.5-5.8-0.4-5.8-3.4v-61.5c0-2.5,1.3-4.8,3.5-6l54-31.2c2.6-1.5,5.8,0.4,5.8,3.4
		v61.5C189.7,172,188.3,174.3,186.2,175.5z"/>
	<path class="st17" d="M187.7,176.6l-54,31.2c-2.6,1.5-5.8-0.4-5.8-3.4v-61.5c0-2.5,1.3-4.8,3.5-6l54-31.2c2.6-1.5,5.8,0.4,5.8,3.4
		v61.5C191.2,173,189.9,175.3,187.7,176.6z"/>
	
		<ellipse transform="matrix(0.5427 -0.8399 0.8399 0.5427 -108.6668 203.955)" class="st18" cx="133" cy="201.8" rx="2.7" ry="1.6"/>
	<path class="st19" d="M133,199.6c-1.1,0.6-2,2.1-2,3.3c0,0.3,0,0.5,0.1,0.7c0.2,0,0.5-0.1,0.7-0.3c1.1-0.6,2-2.1,2-3.3
		c0-0.3,0-0.5-0.1-0.7C133.5,199.4,133.2,199.5,133,199.6z"/>
	
		<ellipse transform="matrix(0.5427 -0.8399 0.8399 0.5427 -59.049 234.8199)" class="st18" cx="186.1" cy="171.6" rx="2.7" ry="1.6"/>
	<path class="st19" d="M186.1,169.5c-1.1,0.6-2,2.1-2,3.3c0,0.3,0,0.5,0.1,0.7c0.2,0,0.5-0.1,0.7-0.3c1.1-0.6,2-2.1,2-3.3
		c0-0.3,0-0.5-0.1-0.7C186.6,169.3,186.4,169.3,186.1,169.5z"/>
	<g>
		<polygon class="st20" points="156.5,122.4 162.8,118.8 169,122.4 162.8,126 		"/>
	</g>
	<polygon class="st21" points="162.8,138.4 162.8,126 169,122.4 169,134.8 	"/>
	<polygon class="st22" points="156.5,122.4 162.8,126 162.8,138.4 156.5,134.8 	"/>
	<g>
		<polygon class="st23" points="184.9,155.9 191.2,152.3 197.4,155.9 191.2,159.5 		"/>
	</g>
	<polygon class="st24" points="191.2,170.4 191.2,159.5 197.4,155.9 197.4,166.8 	"/>
	<polygon class="st25" points="184.9,155.9 191.2,159.5 191.2,170.4 184.9,166.8 	"/>
	<g>
		<polygon class="st23" points="184.9,143.3 191.2,139.7 197.4,143.3 191.2,146.9 		"/>
	</g>
	<polygon class="st24" points="191.2,157.9 191.2,146.9 197.4,143.3 197.4,154.3 	"/>
	<polygon class="st25" points="184.9,143.3 191.2,146.9 191.2,157.9 184.9,154.3 	"/>
	<g>
		<g>
			<polygon class="st26" points="166.5,177.9 167.7,176.6 169.4,177.6 167.7,178.6 			"/>
		</g>
		<g>
			<polygon class="st26" points="166.5,170.5 168.2,169.5 169.4,170.2 167.7,171.2 			"/>
		</g>
		<polygon class="st26" points="167.7,178.6 167.7,171.2 169.4,170.2 169.4,177.6 		"/>
		<polygon class="st26" points="166.5,170.5 167.7,171.2 167.7,178.6 166.5,177.9 		"/>
		<g>
			<polygon class="st26" points="168.2,176.6 168.7,176.3 172.3,178.4 171.8,178.7 			"/>
		</g>
		<polygon class="st26" points="171.8,179.5 171.8,178.7 172.3,178.4 172.3,179.3 		"/>
		<polygon class="st26" points="168.2,176.6 171.8,178.7 171.8,179.5 168.2,177.5 		"/>
		<g>
			<polygon class="st26" points="168.2,174.2 168.7,173.9 172.3,175.9 171.8,176.2 			"/>
		</g>
		<polygon class="st26" points="171.8,177.1 171.8,176.2 172.3,175.9 172.3,176.8 		"/>
		<polygon class="st26" points="168.2,174.2 171.8,176.2 171.8,177.1 168.2,175.1 		"/>
		<g>
			<polygon class="st26" points="168.2,171.8 168.7,171.5 172.3,173.5 171.8,173.8 			"/>
		</g>
		<polygon class="st26" points="171.8,174.7 171.8,173.8 172.3,173.5 172.3,174.4 		"/>
		<polygon class="st26" points="168.2,171.8 171.8,173.8 171.8,174.7 168.2,172.7 		"/>
	</g>
	<g>
		<g>
			<polygon class="st26" points="163.5,179.3 164.7,178 166.4,179 164.7,180 			"/>
		</g>
		<g>
			<polygon class="st26" points="163.5,171.9 165.2,170.9 166.4,171.6 164.7,172.6 			"/>
		</g>
		<polygon class="st26" points="164.7,180 164.7,172.6 166.4,171.6 166.4,179 		"/>
		<polygon class="st26" points="163.5,171.9 164.7,172.6 164.7,180 163.5,179.3 		"/>
		<g>
			<polygon class="st26" points="165.2,178 165.7,177.7 169.3,179.8 168.8,180.1 			"/>
		</g>
		<polygon class="st26" points="168.8,180.9 168.8,180.1 169.3,179.8 169.3,180.7 		"/>
		<polygon class="st26" points="165.2,178 168.8,180.1 168.8,180.9 165.2,178.9 		"/>
		<g>
			<polygon class="st26" points="165.2,175.6 165.7,175.3 169.3,177.3 168.8,177.6 			"/>
		</g>
		<polygon class="st26" points="168.8,178.5 168.8,177.6 169.3,177.3 169.3,178.2 		"/>
		<polygon class="st26" points="165.2,175.6 168.8,177.6 168.8,178.5 165.2,176.5 		"/>
		<g>
			<polygon class="st26" points="165.2,173.2 165.7,172.9 169.3,174.9 168.8,175.2 			"/>
		</g>
		<polygon class="st26" points="168.8,176.1 168.8,175.2 169.3,174.9 169.3,175.8 		"/>
		<polygon class="st26" points="165.2,173.2 168.8,175.2 168.8,176.1 165.2,174 		"/>
	</g>
	<g>
		<g>
			<polygon class="st26" points="160.5,181.2 161.7,179.9 163.4,180.9 161.7,181.9 			"/>
		</g>
		<g>
			<polygon class="st26" points="160.5,173.8 162.2,172.8 163.4,173.5 161.7,174.5 			"/>
		</g>
		<polygon class="st26" points="161.7,181.9 161.7,174.5 163.4,173.5 163.4,180.9 		"/>
		<polygon class="st26" points="160.5,173.8 161.7,174.5 161.7,181.9 160.5,181.2 		"/>
		<g>
			<polygon class="st26" points="162.2,179.9 162.7,179.6 166.3,181.7 165.7,182 			"/>
		</g>
		<polygon class="st26" points="165.7,182.9 165.7,182 166.3,181.7 166.3,182.6 		"/>
		<polygon class="st26" points="162.2,179.9 165.7,182 165.7,182.9 162.2,180.8 		"/>
		<g>
			<polygon class="st26" points="162.2,177.5 162.7,177.2 166.3,179.3 165.7,179.6 			"/>
		</g>
		<polygon class="st26" points="165.7,180.4 165.7,179.6 166.3,179.3 166.3,180.2 		"/>
		<polygon class="st26" points="162.2,177.5 165.7,179.6 165.7,180.4 162.2,178.4 		"/>
		<g>
			<polygon class="st26" points="162.2,175.1 162.7,174.8 166.3,176.8 165.7,177.1 			"/>
		</g>
		<polygon class="st26" points="165.7,178 165.7,177.1 166.3,176.8 166.3,177.7 		"/>
		<polygon class="st26" points="162.2,175.1 165.7,177.1 165.7,178 162.2,176 		"/>
	</g>
	<g>
		<g>
			<polygon class="st26" points="157.4,182.8 158.6,181.5 160.3,182.5 158.6,183.5 			"/>
		</g>
		<g>
			<polygon class="st26" points="157.4,175.5 159.2,174.5 160.3,175.2 158.6,176.1 			"/>
		</g>
		<polygon class="st26" points="158.6,183.5 158.6,176.1 160.3,175.2 160.3,182.5 		"/>
		<polygon class="st26" points="157.4,175.5 158.6,176.1 158.6,183.5 157.4,182.8 		"/>
		<g>
			<polygon class="st26" points="159.1,181.5 159.6,181.2 163.2,183.3 162.7,183.6 			"/>
		</g>
		<polygon class="st26" points="162.7,184.5 162.7,183.6 163.2,183.3 163.2,184.2 		"/>
		<polygon class="st26" points="159.1,181.5 162.7,183.6 162.7,184.5 159.1,182.4 		"/>
		<g>
			<polygon class="st26" points="159.1,179.1 159.6,178.8 163.2,180.9 162.7,181.2 			"/>
		</g>
		<polygon class="st26" points="162.7,182.1 162.7,181.2 163.2,180.9 163.2,181.8 		"/>
		<polygon class="st26" points="159.1,179.1 162.7,181.2 162.7,182.1 159.1,180 		"/>
		<g>
			<polygon class="st26" points="159.1,176.7 159.6,176.4 163.2,178.4 162.7,178.7 			"/>
		</g>
		<polygon class="st26" points="162.7,179.6 162.7,178.7 163.2,178.4 163.2,179.3 		"/>
		<polygon class="st26" points="159.1,176.7 162.7,178.7 162.7,179.6 159.1,177.6 		"/>
	</g>
	<g>
		<g>
			<polygon class="st26" points="154.4,184.8 155.6,183.5 157.3,184.5 155.6,185.4 			"/>
		</g>
		<g>
			<polygon class="st26" points="154.4,177.4 156.1,176.4 157.3,177.1 155.6,178.1 			"/>
		</g>
		<polygon class="st26" points="155.6,185.4 155.6,178.1 157.3,177.1 157.3,184.5 		"/>
		<polygon class="st26" points="154.4,177.4 155.6,178.1 155.6,185.4 154.4,184.8 		"/>
		<g>
			<polygon class="st26" points="156.1,183.5 156.6,183.2 160.2,185.2 159.7,185.5 			"/>
		</g>
		<polygon class="st26" points="159.7,186.4 159.7,185.5 160.2,185.2 160.2,186.1 		"/>
		<polygon class="st26" points="156.1,183.5 159.7,185.5 159.7,186.4 156.1,184.4 		"/>
		<g>
			<polygon class="st26" points="156.1,181 156.6,180.8 160.2,182.8 159.7,183.1 			"/>
		</g>
		<polygon class="st26" points="159.7,184 159.7,183.1 160.2,182.8 160.2,183.7 		"/>
		<polygon class="st26" points="156.1,181 159.7,183.1 159.7,184 156.1,181.9 		"/>
		<g>
			<polygon class="st26" points="156.1,178.6 156.6,178.3 160.2,180.4 159.7,180.7 			"/>
		</g>
		<polygon class="st26" points="159.7,181.6 159.7,180.7 160.2,180.4 160.2,181.3 		"/>
		<polygon class="st26" points="156.1,178.6 159.7,180.7 159.7,181.6 156.1,179.5 		"/>
	</g>
	<polygon class="st21" points="146.7,143.2 146.7,136.8 152.1,133.6 152.1,140 	"/>
	<polygon class="st22" points="146.7,143.2 146.2,142.9 146.2,136.5 146.7,136.8 	"/>
	<polygon class="st20" points="152.1,133.6 151.7,133.4 146.2,136.5 146.7,136.8 	"/>
	<g>
		<polygon class="st21" points="140.5,182.7 140.5,177.9 144.6,175.5 144.6,180.3 		"/>
		<polygon class="st22" points="140.5,182.7 139.9,182.4 139.9,177.6 140.5,177.9 		"/>
		<polygon class="st20" points="144.6,175.5 144,175.2 139.9,177.6 140.5,177.9 		"/>
	</g>
	<ellipse class="st22" cx="162.8" cy="122.4" rx="3.4" ry="1.9"/>
	<path class="st27" d="M162.8,122.4c-0.4,0-0.8,0.4-0.8,0.8v1c0.3,0,0.5,0.1,0.8,0.1c0.3,0,0.5,0,0.8-0.1v-1
		C163.6,122.8,163.2,122.4,162.8,122.4z"/>
	<path class="st19" d="M138.3,155.6l-0.1,16.9l44.5-25.7l0.1-16.9L138.3,155.6z M148.5,162.5c-2.3,1.3-4.1,0.3-4.1-2.1
		c0-2.5,1.8-5.6,4.1-6.9s4.1-0.4,4.1,2.1C152.7,158.1,150.8,161.2,148.5,162.5z M165,152.6c-1.2,2-2.7,3.6-4.4,4.5s-3.2,1.2-4.4,0.5
		c-0.3-0.2-0.3-0.7,0-1.2c0.3-0.5,0.8-0.8,1.1-0.6c0.9,0.5,2,0.3,3.3-0.4s2.4-1.9,3.3-3.4c0.3-0.5,0.8-0.8,1.1-0.6
		C165.3,151.5,165.3,152,165,152.6z M172.7,148.5c-2.3,1.3-4.1,0.3-4.1-2.1c0-2.5,1.8-5.6,4.1-6.9c2.3-1.3,4.1-0.3,4.1,2.1
		C176.8,144.2,175,147.2,172.7,148.5z"/>
	<ellipse transform="matrix(0.5358 -0.8443 0.8443 0.5358 -64.4336 198.7376)" class="st28" cx="148.5" cy="158" rx="2" ry="1.2"/>
	<ellipse transform="matrix(0.5358 -0.8443 0.8443 0.5358 -41.4388 212.6641)" class="st28" cx="172.7" cy="144" rx="2" ry="1.2"/>
	<g>
		<polygon class="st21" points="140.5,192.3 140.5,187.5 144.6,185.1 144.6,190 		"/>
		<polygon class="st22" points="140.5,192.3 139.9,192 139.9,187.2 140.5,187.5 		"/>
		<polygon class="st20" points="144.6,185.1 144,184.8 139.9,187.2 140.5,187.5 		"/>
	</g>
	<g>
		<polygon class="st21" points="177.9,161.1 177.9,156.3 182,153.9 182,158.7 		"/>
		<polygon class="st22" points="177.9,161.1 177.3,160.8 177.3,156 177.9,156.3 		"/>
		<polygon class="st20" points="182,153.9 181.5,153.6 177.3,156 177.9,156.3 		"/>
	</g>
	<g>
		<polygon class="st21" points="177.9,170.8 177.9,166 182,163.6 182,168.4 		"/>
		<polygon class="st22" points="177.9,170.7 177.3,170.5 177.3,165.6 177.9,166 		"/>
		<polygon class="st20" points="182,163.6 181.5,163.3 177.3,165.6 177.9,166 		"/>
	</g>
	<g>
		<polygon class="st23" points="127.9,188.6 134.1,185 140.4,188.6 134.1,192.3 		"/>
	</g>
	<polygon class="st24" points="134.1,203.2 134.1,192.3 140.4,188.6 140.4,199.6 	"/>
	<polygon class="st25" points="127.9,188.6 134.1,192.3 134.1,203.2 127.9,199.6 	"/>
	<polygon class="st29" points="129.2,191.2 132.8,193.3 132.8,195.8 129.2,193.7 	"/>
	<polygon class="st29" points="129.2,195.8 132.8,197.9 132.8,200.3 129.2,198.2 	"/>
	<g>
		<polygon class="st23" points="127.9,176.1 134.1,172.5 140.4,176.1 134.1,179.7 		"/>
	</g>
	<polygon class="st24" points="134.1,190.6 134.1,179.7 140.4,176.1 140.4,187 	"/>
	<polygon class="st25" points="127.9,176.1 134.1,179.7 134.1,190.6 127.9,187 	"/>
	<polygon class="st29" points="129.2,178.7 132.8,180.7 132.8,183.2 129.2,181.1 	"/>
	<polygon class="st29" points="129.2,183.2 132.8,185.3 132.8,187.8 129.2,185.7 	"/>
	<g>
		<polygon class="st30" points="147.3,162.8 147.3,157.3 152,154.6 152,160.1 		"/>
		<polygon class="st31" points="146.7,157 146.1,156.6 146.1,162.1 146.7,162.4 146.7,162.4 147.3,162.7 147.3,157.3 		"/>
		<polygon class="st32" points="151.3,154.3 150.7,153.9 146.1,156.6 146.7,157 147.3,157.3 152,154.6 		"/>
		
			<ellipse transform="matrix(0.5358 -0.8443 0.8443 0.5358 -64.5359 199.9931)" class="st28" cx="149.6" cy="158.7" rx="2.3" ry="1.3"/>
	</g>
	<g>
		<polygon class="st30" points="171.5,148.8 171.5,143.3 176.2,140.6 176.2,146.1 		"/>
		<polygon class="st31" points="170.9,143 170.3,142.7 170.3,148.1 170.9,148.4 170.9,148.4 171.5,148.7 171.5,143.3 		"/>
		<polygon class="st32" points="175.5,140.3 174.9,140 170.3,142.7 170.9,143 171.5,143.3 176.2,140.6 		"/>
		
			<ellipse transform="matrix(0.5358 -0.8443 0.8443 0.5358 -41.4972 213.9428)" class="st28" cx="173.8" cy="144.7" rx="2.3" ry="1.3"/>
	</g>
	<g>
		<g>
			<polygon class="st20" points="166.5,170.5 168.2,169.5 169.4,170.2 167.7,171.2 			"/>
		</g>
		<polygon class="st21" points="167.7,178.6 167.7,171.2 169.4,170.2 169.4,177.6 		"/>
		<polygon class="st22" points="166.5,170.5 167.7,171.2 167.7,178.6 166.5,177.9 		"/>
		<g>
			<polygon class="st33" points="168.2,176.6 168.7,176.3 172.3,178.4 171.8,178.7 			"/>
		</g>
		<polygon class="st34" points="171.8,179.5 171.8,178.7 172.3,178.4 172.3,179.3 		"/>
		<polygon class="st35" points="168.2,176.6 171.8,178.7 171.8,179.5 168.2,177.5 		"/>
		<g>
			<polygon class="st33" points="168.2,174.2 168.7,173.9 172.3,175.9 171.8,176.2 			"/>
		</g>
		<polygon class="st34" points="171.8,177.1 171.8,176.2 172.3,175.9 172.3,176.8 		"/>
		<polygon class="st35" points="168.2,174.2 171.8,176.2 171.8,177.1 168.2,175.1 		"/>
		<g>
			<polygon class="st33" points="168.2,171.8 168.7,171.5 172.3,173.5 171.8,173.8 			"/>
		</g>
		<polygon class="st34" points="171.8,174.7 171.8,173.8 172.3,173.5 172.3,174.4 		"/>
		<polygon class="st35" points="168.2,171.8 171.8,173.8 171.8,174.7 168.2,172.7 		"/>
	</g>
	<g>
		<g>
			<polygon class="st20" points="163.5,171.9 165.2,170.9 166.4,171.6 164.7,172.6 			"/>
		</g>
		<polygon class="st21" points="164.7,180 164.7,172.6 166.4,171.6 166.4,179 		"/>
		<polygon class="st22" points="163.5,171.9 164.7,172.6 164.7,180 163.5,179.3 		"/>
		<g>
			<polygon class="st33" points="165.2,178 165.7,177.7 169.3,179.8 168.8,180.1 			"/>
		</g>
		<polygon class="st34" points="168.8,180.9 168.8,180.1 169.3,179.8 169.3,180.7 		"/>
		<polygon class="st35" points="165.2,178 168.8,180.1 168.8,180.9 165.2,178.9 		"/>
		<g>
			<polygon class="st33" points="165.2,175.6 165.7,175.3 169.3,177.3 168.8,177.6 			"/>
		</g>
		<polygon class="st34" points="168.8,178.5 168.8,177.6 169.3,177.3 169.3,178.2 		"/>
		<polygon class="st35" points="165.2,175.6 168.8,177.6 168.8,178.5 165.2,176.5 		"/>
		<g>
			<polygon class="st33" points="165.2,173.2 165.7,172.9 169.3,174.9 168.8,175.2 			"/>
		</g>
		<polygon class="st34" points="168.8,176.1 168.8,175.2 169.3,174.9 169.3,175.8 		"/>
		<polygon class="st35" points="165.2,173.2 168.8,175.2 168.8,176.1 165.2,174 		"/>
	</g>
	<g>
		<g>
			<polygon class="st20" points="160.5,173.8 162.2,172.8 163.4,173.5 161.7,174.5 			"/>
		</g>
		<polygon class="st21" points="161.7,181.9 161.7,174.5 163.4,173.5 163.4,180.9 		"/>
		<polygon class="st22" points="160.5,173.8 161.7,174.5 161.7,181.9 160.5,181.2 		"/>
		<g>
			<polygon class="st33" points="162.2,179.9 162.7,179.6 166.3,181.7 165.7,182 			"/>
		</g>
		<polygon class="st34" points="165.7,182.9 165.7,182 166.3,181.7 166.3,182.6 		"/>
		<polygon class="st35" points="162.2,179.9 165.7,182 165.7,182.9 162.2,180.8 		"/>
		<g>
			<polygon class="st33" points="162.2,177.5 162.7,177.2 166.3,179.3 165.7,179.6 			"/>
		</g>
		<polygon class="st34" points="165.7,180.4 165.7,179.6 166.3,179.3 166.3,180.2 		"/>
		<polygon class="st35" points="162.2,177.5 165.7,179.6 165.7,180.4 162.2,178.4 		"/>
		<g>
			<polygon class="st33" points="162.2,175.1 162.7,174.8 166.3,176.8 165.7,177.1 			"/>
		</g>
		<polygon class="st34" points="165.7,178 165.7,177.1 166.3,176.8 166.3,177.7 		"/>
		<polygon class="st35" points="162.2,175.1 165.7,177.1 165.7,178 162.2,176 		"/>
	</g>
	<g>
		<g>
			<polygon class="st20" points="157.4,175.5 159.2,174.5 160.3,175.2 158.6,176.1 			"/>
		</g>
		<polygon class="st21" points="158.6,183.5 158.6,176.1 160.3,175.2 160.3,182.5 		"/>
		<polygon class="st22" points="157.4,175.5 158.6,176.1 158.6,183.5 157.4,182.8 		"/>
		<g>
			<polygon class="st33" points="159.1,181.5 159.6,181.2 163.2,183.3 162.7,183.6 			"/>
		</g>
		<polygon class="st34" points="162.7,184.5 162.7,183.6 163.2,183.3 163.2,184.2 		"/>
		<polygon class="st35" points="159.1,181.5 162.7,183.6 162.7,184.5 159.1,182.4 		"/>
		<g>
			<polygon class="st33" points="159.1,179.1 159.6,178.8 163.2,180.9 162.7,181.2 			"/>
		</g>
		<polygon class="st34" points="162.7,182.1 162.7,181.2 163.2,180.9 163.2,181.8 		"/>
		<polygon class="st35" points="159.1,179.1 162.7,181.2 162.7,182.1 159.1,180 		"/>
		<g>
			<polygon class="st33" points="159.1,176.7 159.6,176.4 163.2,178.4 162.7,178.7 			"/>
		</g>
		<polygon class="st34" points="162.7,179.6 162.7,178.7 163.2,178.4 163.2,179.3 		"/>
		<polygon class="st35" points="159.1,176.7 162.7,178.7 162.7,179.6 159.1,177.6 		"/>
	</g>
	<g>
		<g>
			<polygon class="st20" points="154.4,177.4 156.1,176.4 157.3,177.1 155.6,178.1 			"/>
		</g>
		<polygon class="st21" points="155.6,185.4 155.6,178.1 157.3,177.1 157.3,184.5 		"/>
		<polygon class="st22" points="154.4,177.4 155.6,178.1 155.6,185.4 154.4,184.8 		"/>
		<g>
			<polygon class="st33" points="156.1,183.5 156.6,183.2 160.2,185.2 159.7,185.5 			"/>
		</g>
		<polygon class="st34" points="159.7,186.4 159.7,185.5 160.2,185.2 160.2,186.1 		"/>
		<polygon class="st35" points="156.1,183.5 159.7,185.5 159.7,186.4 156.1,184.4 		"/>
		<g>
			<polygon class="st33" points="156.1,181 156.6,180.8 160.2,182.8 159.7,183.1 			"/>
		</g>
		<polygon class="st34" points="159.7,184 159.7,183.1 160.2,182.8 160.2,183.7 		"/>
		<polygon class="st35" points="156.1,181 159.7,183.1 159.7,184 156.1,181.9 		"/>
		<g>
			<polygon class="st33" points="156.1,178.6 156.6,178.3 160.2,180.4 159.7,180.7 			"/>
		</g>
		<polygon class="st34" points="159.7,181.6 159.7,180.7 160.2,180.4 160.2,181.3 		"/>
		<polygon class="st35" points="156.1,178.6 159.7,180.7 159.7,181.6 156.1,179.5 		"/>
	</g>
	<polygon class="st18" points="129.9,135.8 131.6,136.7 185.4,105.7 183.6,104.8 	"/>
	<path class="st36" d="M131.3,136.9l0.2-0.1l-1.7-1l-0.1,0c-0.8,0.4-1.4,1-2,1.7l1.6,0.9C130,137.9,130.6,137.3,131.3,136.9z"/>
	<ellipse transform="matrix(0.5427 -0.8399 0.8399 0.5427 -58.3376 176.552)" class="st18" cx="133" cy="141.8" rx="2.7" ry="1.6"/>
	<path class="st19" d="M133,139.7c-1.1,0.6-2,2.1-2,3.3c0,0.3,0,0.5,0.1,0.7c0.2,0,0.5-0.1,0.7-0.3c1.1-0.6,2-2.1,2-3.3
		c0-0.3,0-0.5-0.1-0.7C133.5,139.5,133.2,139.6,133,139.7z"/>
	
		<ellipse transform="matrix(0.5427 -0.8399 0.8399 0.5427 -8.7199 207.4169)" class="st18" cx="186.1" cy="111.7" rx="2.7" ry="1.6"/>
	<path class="st19" d="M186.1,109.6c-1.1,0.6-2,2.1-2,3.3c0,0.3,0,0.5,0.1,0.7c0.2,0,0.5-0.1,0.7-0.3c1.1-0.6,2-2.1,2-3.3
		c0-0.3,0-0.5-0.1-0.7C186.6,109.3,186.4,109.4,186.1,109.6z"/>
	<g>
		<polygon class="st34" points="132,169 132,164.6 135.8,162.4 135.8,166.8 		"/>
		<polygon class="st35" points="131.5,164.3 131,164 131,168.4 131.5,168.7 131.5,168.7 132,169 132,164.6 		"/>
		<polygon class="st33" points="135.3,162.1 134.8,161.8 131,164 131.5,164.3 132,164.6 135.8,162.4 		"/>
		<path class="st37" d="M135.1,168.1l1.6-2.6l-1.9-1l0,0c-0.2-0.2-0.5-0.2-0.9,0c-0.6,0.4-1.1,1.2-1.1,1.9c0,0.3,0.1,0.5,0.3,0.7
			l0,0l0,0c0,0,0,0,0,0L135.1,168.1z"/>
		
			<ellipse transform="matrix(0.5358 -0.8443 0.8443 0.5358 -77.7341 192.1648)" class="st38" cx="135.9" cy="166.8" rx="1.6" ry="0.9"/>
	</g>
	<g>
		<polygon class="st34" points="186.4,138.3 186.4,133.9 190.2,131.7 190.2,136.1 		"/>
		<polygon class="st35" points="185.9,133.6 185.4,133.3 185.4,137.7 185.9,138 185.9,138 186.4,138.3 186.4,133.9 		"/>
		<polygon class="st33" points="189.7,131.4 189.2,131.1 185.4,133.3 185.9,133.6 186.4,133.9 190.2,131.7 		"/>
		<path class="st37" d="M189.5,137.4l1.6-2.6l-1.9-1l0,0c-0.2-0.2-0.5-0.2-0.9,0c-0.6,0.4-1.1,1.2-1.1,1.9c0,0.3,0.1,0.5,0.3,0.7
			l0,0l0,0c0,0,0,0,0,0L189.5,137.4z"/>
		
			<ellipse transform="matrix(0.5358 -0.8443 0.8443 0.5358 -26.5723 223.8311)" class="st38" cx="190.3" cy="136.1" rx="1.6" ry="0.9"/>
	</g>
	<polygon class="st38" points="127.9,159.3 127.9,152.2 134.3,148.4 134.3,155.5 	"/>
	
		<ellipse transform="matrix(0.5358 -0.8443 0.8443 0.5358 -68.6004 182.3947)" class="st37" cx="131.6" cy="153.6" rx="2.3" ry="1.3"/>
	<path class="st19" d="M129.9,154.6c0,0.1,0,0.3,0,0.4c0.1,0,0.3-0.1,0.4-0.2c0.9-0.5,1.7-1.8,1.7-2.8c0-0.1,0-0.3,0-0.4
		c-0.1,0-0.3,0.1-0.4,0.2C130.7,152.3,129.9,153.5,129.9,154.6z"/>
	<polygon class="st38" points="184.8,128 184.8,120.9 191.2,117.2 191.2,124.3 	"/>
	
		<ellipse transform="matrix(0.5358 -0.8443 0.8443 0.5358 -16.5473 215.5557)" class="st37" cx="187.8" cy="122.8" rx="2.3" ry="1.3"/>
	<path class="st19" d="M186.1,123.8c0,0.1,0,0.3,0,0.4c0.1,0,0.3-0.1,0.4-0.2c0.9-0.5,1.7-1.8,1.7-2.8c0-0.1,0-0.3,0-0.4
		c-0.1,0-0.3,0.1-0.4,0.2C186.9,121.5,186.1,122.8,186.1,123.8z"/>
	<path class="st16" d="M186.2,175.5l-54,31.2c-2.6,1.5-5.8-0.4-5.8-3.4v-61.5c0-2.5,1.3-4.8,3.5-6l54-31.2c2.6-1.5,5.8,0.4,5.8,3.4
		v61.5C189.7,172,188.3,174.3,186.2,175.5z"/>
	<path class="st39" d="M187.7,176.6l-54,31.2c-2.6,1.5-5.8-0.4-5.8-3.4v-61.5c0-2.5,1.3-4.8,3.5-6l54-31.2c2.6-1.5,5.8,0.4,5.8,3.4
		v61.5C191.2,173,189.9,175.3,187.7,176.6z"/>
	
		<ellipse transform="matrix(0.5427 -0.8399 0.8399 0.5427 -108.6668 203.955)" class="st18" cx="133" cy="201.8" rx="2.7" ry="1.6"/>
	<path class="st1" d="M133,199.6c-1.1,0.6-2,2.1-2,3.3c0,0.3,0,0.5,0.1,0.7c0.2,0,0.5-0.1,0.7-0.3c1.1-0.6,2-2.1,2-3.3
		c0-0.3,0-0.5-0.1-0.7C133.5,199.4,133.2,199.5,133,199.6z"/>
	
		<ellipse transform="matrix(0.5427 -0.8399 0.8399 0.5427 -59.049 234.8199)" class="st18" cx="186.1" cy="171.6" rx="2.7" ry="1.6"/>
	<path class="st1" d="M186.1,169.5c-1.1,0.6-2,2.1-2,3.3c0,0.3,0,0.5,0.1,0.7c0.2,0,0.5-0.1,0.7-0.3c1.1-0.6,2-2.1,2-3.3
		c0-0.3,0-0.5-0.1-0.7C186.6,169.3,186.4,169.3,186.1,169.5z"/>
	<g>
		<polygon class="st20" points="156.5,122.4 162.8,118.8 169,122.4 162.8,126 		"/>
	</g>
	<polygon class="st21" points="162.8,138.4 162.8,126 169,122.4 169,134.8 	"/>
	<polygon class="st22" points="156.5,122.4 162.8,126 162.8,138.4 156.5,134.8 	"/>
	<polygon class="st21" points="146.7,143.2 146.7,136.8 152.1,133.6 152.1,140 	"/>
	<polygon class="st22" points="146.7,143.2 146.2,142.9 146.2,136.5 146.7,136.8 	"/>
	<polygon class="st20" points="152.1,133.6 151.7,133.4 146.2,136.5 146.7,136.8 	"/>
	<g>
		<polygon class="st21" points="140.5,182.7 140.5,177.9 144.6,175.5 144.6,180.3 		"/>
		<polygon class="st22" points="140.5,182.7 139.9,182.4 139.9,177.6 140.5,177.9 		"/>
		<polygon class="st20" points="144.6,175.5 144,175.2 139.9,177.6 140.5,177.9 		"/>
	</g>
	<ellipse class="st22" cx="162.8" cy="122.4" rx="3.4" ry="1.9"/>
	<path class="st27" d="M162.8,122.4c-0.4,0-0.8,0.4-0.8,0.8v1c0.3,0,0.5,0.1,0.8,0.1c0.3,0,0.5,0,0.8-0.1v-1
		C163.6,122.8,163.2,122.4,162.8,122.4z"/>
	<path class="st19" d="M138.3,155.6l-0.1,16.9l44.5-25.7l0.1-16.9L138.3,155.6z M148.5,162.5c-2.3,1.3-4.1,0.3-4.1-2.1
		c0-2.5,1.8-5.6,4.1-6.9s4.1-0.4,4.1,2.1C152.7,158.1,150.8,161.2,148.5,162.5z M165,152.6c-1.2,2-2.7,3.6-4.4,4.5s-3.2,1.2-4.4,0.5
		c-0.3-0.2-0.3-0.7,0-1.2c0.3-0.5,0.8-0.8,1.1-0.6c0.9,0.5,2,0.3,3.3-0.4s2.4-1.9,3.3-3.4c0.3-0.5,0.8-0.8,1.1-0.6
		C165.3,151.5,165.3,152,165,152.6z M172.7,148.5c-2.3,1.3-4.1,0.3-4.1-2.1c0-2.5,1.8-5.6,4.1-6.9c2.3-1.3,4.1-0.3,4.1,2.1
		C176.8,144.2,175,147.2,172.7,148.5z"/>
	<ellipse transform="matrix(0.5358 -0.8443 0.8443 0.5358 -64.4336 198.7376)" class="st28" cx="148.5" cy="158" rx="2" ry="1.2"/>
	<ellipse transform="matrix(0.5358 -0.8443 0.8443 0.5358 -41.4388 212.6641)" class="st28" cx="172.7" cy="144" rx="2" ry="1.2"/>
	<g>
		<polygon class="st21" points="140.5,192.3 140.5,187.5 144.6,185.1 144.6,190 		"/>
		<polygon class="st22" points="140.5,192.3 139.9,192 139.9,187.2 140.5,187.5 		"/>
		<polygon class="st20" points="144.6,185.1 144,184.8 139.9,187.2 140.5,187.5 		"/>
	</g>
	<g>
		<polygon class="st21" points="177.9,161.1 177.9,156.3 182,153.9 182,158.7 		"/>
		<polygon class="st22" points="177.9,161.1 177.3,160.8 177.3,156 177.9,156.3 		"/>
		<polygon class="st20" points="182,153.9 181.5,153.6 177.3,156 177.9,156.3 		"/>
	</g>
	<g>
		<polygon class="st21" points="177.9,170.8 177.9,166 182,163.6 182,168.4 		"/>
		<polygon class="st22" points="177.9,170.7 177.3,170.5 177.3,165.6 177.9,166 		"/>
		<polygon class="st20" points="182,163.6 181.5,163.3 177.3,165.6 177.9,166 		"/>
	</g>
	<g>
		<polygon class="st23" points="127.9,188.6 134.1,185 140.4,188.6 134.1,192.3 		"/>
	</g>
	<polygon class="st25" points="127.9,176.1 134.1,179.7 134.1,190.6 127.9,187 	"/>
	<g>
		<polygon class="st30" points="147.3,162.8 147.3,157.3 152,154.6 152,160.1 		"/>
		<polygon class="st31" points="146.7,157 146.1,156.6 146.1,162.1 146.7,162.4 146.7,162.4 147.3,162.7 147.3,157.3 		"/>
		<polygon class="st32" points="151.3,154.3 150.7,153.9 146.1,156.6 146.7,157 147.3,157.3 152,154.6 		"/>
		
			<ellipse transform="matrix(0.5358 -0.8443 0.8443 0.5358 -64.5359 199.9931)" class="st28" cx="149.6" cy="158.7" rx="2.3" ry="1.3"/>
	</g>
	<g>
		<polygon class="st30" points="171.5,148.8 171.5,143.3 176.2,140.6 176.2,146.1 		"/>
		<polygon class="st31" points="170.9,143 170.3,142.7 170.3,148.1 170.9,148.4 170.9,148.4 171.5,148.7 171.5,143.3 		"/>
		<polygon class="st32" points="175.5,140.3 174.9,140 170.3,142.7 170.9,143 171.5,143.3 176.2,140.6 		"/>
		
			<ellipse transform="matrix(0.5358 -0.8443 0.8443 0.5358 -41.4972 213.9428)" class="st28" cx="173.8" cy="144.7" rx="2.3" ry="1.3"/>
	</g>
	<polygon class="st18" points="129.9,135.8 131.6,136.7 185.4,105.7 183.6,104.8 	"/>
	<path class="st36" d="M131.3,136.9l0.2-0.1l-1.7-1l-0.1,0c-0.8,0.4-1.4,1-2,1.7l1.6,0.9C130,137.9,130.6,137.3,131.3,136.9z"/>
	<ellipse transform="matrix(0.5427 -0.8399 0.8399 0.5427 -58.3376 176.552)" class="st18" cx="133" cy="141.8" rx="2.7" ry="1.6"/>
	<path class="st1" d="M133,139.7c-1.1,0.6-2,2.1-2,3.3c0,0.3,0,0.5,0.1,0.7c0.2,0,0.5-0.1,0.7-0.3c1.1-0.6,2-2.1,2-3.3
		c0-0.3,0-0.5-0.1-0.7C133.5,139.5,133.2,139.6,133,139.7z"/>
	
		<ellipse transform="matrix(0.5427 -0.8399 0.8399 0.5427 -8.7199 207.4169)" class="st18" cx="186.1" cy="111.7" rx="2.7" ry="1.6"/>
	<path class="st12" d="M186.1,109.6c-1.1,0.6-2,2.1-2,3.3c0,0.3,0,0.5,0.1,0.7c0.2,0,0.5-0.1,0.7-0.3c1.1-0.6,2-2.1,2-3.3
		c0-0.3,0-0.5-0.1-0.7C186.6,109.3,186.4,109.4,186.1,109.6z"/>
	<g>
		<polygon class="st34" points="132,169 132,164.6 135.8,162.4 135.8,166.8 		"/>
		<polygon class="st35" points="131.5,164.3 131,164 131,168.4 131.5,168.7 131.5,168.7 132,169 132,164.6 		"/>
		<polygon class="st33" points="135.3,162.1 134.8,161.8 131,164 131.5,164.3 132,164.6 135.8,162.4 		"/>
		<path class="st37" d="M135.1,168.1l1.6-2.6l-1.9-1l0,0c-0.2-0.2-0.5-0.2-0.9,0c-0.6,0.4-1.1,1.2-1.1,1.9c0,0.3,0.1,0.5,0.3,0.7
			l0,0l0,0c0,0,0,0,0,0L135.1,168.1z"/>
		
			<ellipse transform="matrix(0.5358 -0.8443 0.8443 0.5358 -77.7341 192.1648)" class="st38" cx="135.9" cy="166.8" rx="1.6" ry="0.9"/>
	</g>
	<g>
		<polygon class="st34" points="186.4,138.3 186.4,133.9 190.2,131.7 190.2,136.1 		"/>
		<polygon class="st35" points="185.9,133.6 185.4,133.3 185.4,137.7 185.9,138 185.9,138 186.4,138.3 186.4,133.9 		"/>
		<polygon class="st33" points="189.7,131.4 189.2,131.1 185.4,133.3 185.9,133.6 186.4,133.9 190.2,131.7 		"/>
		<path class="st37" d="M189.5,137.4l1.6-2.6l-1.9-1l0,0c-0.2-0.2-0.5-0.2-0.9,0c-0.6,0.4-1.1,1.2-1.1,1.9c0,0.3,0.1,0.5,0.3,0.7
			l0,0l0,0c0,0,0,0,0,0L189.5,137.4z"/>
		
			<ellipse transform="matrix(0.5358 -0.8443 0.8443 0.5358 -26.5723 223.8311)" class="st38" cx="190.3" cy="136.1" rx="1.6" ry="0.9"/>
	</g>
	<polygon class="st38" points="127.9,159.3 127.9,152.2 134.3,148.4 134.3,155.5 	"/>
	
		<ellipse transform="matrix(0.5358 -0.8443 0.8443 0.5358 -68.6004 182.3947)" class="st37" cx="131.6" cy="153.6" rx="2.3" ry="1.3"/>
	<path class="st13" d="M129.9,154.6c0,0.1,0,0.3,0,0.4c0.1,0,0.3-0.1,0.4-0.2c0.9-0.5,1.7-1.8,1.7-2.8c0-0.1,0-0.3,0-0.4
		c-0.1,0-0.3,0.1-0.4,0.2C130.7,152.3,129.9,153.5,129.9,154.6z"/>
	<polygon class="st38" points="184.8,128 184.8,120.9 191.2,117.2 191.2,124.3 	"/>
	
		<ellipse transform="matrix(0.5358 -0.8443 0.8443 0.5358 -16.5473 215.5557)" class="st37" cx="187.8" cy="122.8" rx="2.3" ry="1.3"/>
	<path class="st13" d="M186.1,123.8c0,0.1,0,0.3,0,0.4c0.1,0,0.3-0.1,0.4-0.2c0.9-0.5,1.7-1.8,1.7-2.8c0-0.1,0-0.3,0-0.4
		c-0.1,0-0.3,0.1-0.4,0.2C186.9,121.5,186.1,122.8,186.1,123.8z"/>
	<polygon class="st21" points="156.4,191.6 156.4,188 165.5,182.8 165.5,186.4 	"/>
	<polygon class="st22" points="156.4,191.6 156,191.4 156,187.8 156.4,188 	"/>
	<polygon class="st20" points="165.5,182.8 165,182.5 156,187.8 156.4,188 	"/>
	<g>
		<g>
			<polygon class="st20" points="165.8,171.1 167.5,170.1 168.7,170.8 167,171.8 			"/>
		</g>
		<polygon class="st21" points="167,179.2 167,171.8 168.7,170.8 168.7,178.2 		"/>
		<polygon class="st22" points="165.8,171.1 167,171.8 167,179.2 165.8,178.5 		"/>
		<g>
			<polygon class="st33" points="167.5,177.2 168,176.9 171.6,178.9 171,179.2 			"/>
		</g>
		<polygon class="st34" points="171,180.1 171,179.2 171.6,178.9 171.6,179.8 		"/>
		<polygon class="st35" points="167.5,177.2 171,179.2 171,180.1 167.5,178.1 		"/>
		<g>
			<polygon class="st33" points="167.5,174.8 168,174.5 171.6,176.5 171,176.8 			"/>
		</g>
		<polygon class="st34" points="171,177.7 171,176.8 171.6,176.5 171.6,177.4 		"/>
		<polygon class="st35" points="167.5,174.8 171,176.8 171,177.7 167.5,175.7 		"/>
		<g>
			<polygon class="st33" points="167.5,172.3 168,172 171.6,174.1 171,174.4 			"/>
		</g>
		<polygon class="st34" points="171,175.3 171,174.4 171.6,174.1 171.6,175 		"/>
		<polygon class="st35" points="167.5,172.3 171,174.4 171,175.3 167.5,173.2 		"/>
	</g>
	<g>
		<g>
			<polygon class="st20" points="162.7,172.5 164.5,171.5 165.6,172.2 163.9,173.2 			"/>
		</g>
		<polygon class="st21" points="163.9,180.6 163.9,173.2 165.6,172.2 165.6,179.6 		"/>
		<polygon class="st22" points="162.7,172.5 163.9,173.2 163.9,180.6 162.7,179.9 		"/>
		<g>
			<polygon class="st33" points="164.4,178.6 164.9,178.3 168.5,180.3 168,180.6 			"/>
		</g>
		<polygon class="st34" points="168,181.5 168,180.6 168.5,180.3 168.5,181.2 		"/>
		<polygon class="st35" points="164.4,178.6 168,180.6 168,181.5 164.4,179.5 		"/>
		<g>
			<polygon class="st33" points="164.4,176.2 164.9,175.9 168.5,177.9 168,178.2 			"/>
		</g>
		<polygon class="st34" points="168,179.1 168,178.2 168.5,177.9 168.5,178.8 		"/>
		<polygon class="st35" points="164.4,176.2 168,178.2 168,179.1 164.4,177.1 		"/>
		<g>
			<polygon class="st33" points="164.4,173.7 164.9,173.4 168.5,175.5 168,175.8 			"/>
		</g>
		<polygon class="st34" points="168,176.7 168,175.8 168.5,175.5 168.5,176.4 		"/>
		<polygon class="st35" points="164.4,173.7 168,175.8 168,176.7 164.4,174.6 		"/>
	</g>
	<g>
		<g>
			<polygon class="st20" points="159.7,174.4 161.4,173.4 162.6,174.1 160.9,175.1 			"/>
		</g>
		<polygon class="st21" points="160.9,182.5 160.9,175.1 162.6,174.1 162.6,181.5 		"/>
		<polygon class="st22" points="159.7,174.4 160.9,175.1 160.9,182.5 159.7,181.8 		"/>
		<g>
			<polygon class="st33" points="161.4,180.5 161.9,180.2 165.5,182.3 165,182.6 			"/>
		</g>
		<polygon class="st34" points="165,183.5 165,182.6 165.5,182.3 165.5,183.2 		"/>
		<polygon class="st35" points="161.4,180.5 165,182.6 165,183.5 161.4,181.4 		"/>
		<g>
			<polygon class="st33" points="161.4,178.1 161.9,177.8 165.5,179.8 165,180.1 			"/>
		</g>
		<polygon class="st34" points="165,181 165,180.1 165.5,179.8 165.5,180.7 		"/>
		<polygon class="st35" points="161.4,178.1 165,180.1 165,181 161.4,179 		"/>
		<g>
			<polygon class="st33" points="161.4,175.7 161.9,175.4 165.5,177.4 165,177.7 			"/>
		</g>
		<polygon class="st34" points="165,178.6 165,177.7 165.5,177.4 165.5,178.3 		"/>
		<polygon class="st35" points="161.4,175.7 165,177.7 165,178.6 161.4,176.6 		"/>
	</g>
	<g>
		<g>
			<polygon class="st20" points="156.7,176 158.4,175 159.6,175.7 157.9,176.7 			"/>
		</g>
		<polygon class="st21" points="157.9,184.1 157.9,176.7 159.6,175.7 159.6,183.1 		"/>
		<polygon class="st22" points="156.7,176 157.9,176.7 157.9,184.1 156.7,183.4 		"/>
		<g>
			<polygon class="st33" points="158.4,182.1 158.9,181.8 162.5,183.9 162,184.2 			"/>
		</g>
		<polygon class="st34" points="162,185.1 162,184.2 162.5,183.9 162.5,184.8 		"/>
		<polygon class="st35" points="158.4,182.1 162,184.2 162,185.1 158.4,183 		"/>
		<g>
			<polygon class="st33" points="158.4,179.7 158.9,179.4 162.5,181.5 162,181.7 			"/>
		</g>
		<polygon class="st34" points="162,182.6 162,181.7 162.5,181.5 162.5,182.3 		"/>
		<polygon class="st35" points="158.4,179.7 162,181.7 162,182.6 158.4,180.6 		"/>
		<g>
			<polygon class="st33" points="158.4,177.3 158.9,177 162.5,179 162,179.3 			"/>
		</g>
		<polygon class="st34" points="162,180.2 162,179.3 162.5,179 162.5,179.9 		"/>
		<polygon class="st35" points="158.4,177.3 162,179.3 162,180.2 158.4,178.2 		"/>
	</g>
	<g>
		<g>
			<polygon class="st20" points="153.6,178 155.4,177 156.6,177.7 154.8,178.7 			"/>
		</g>
		<polygon class="st21" points="154.8,186 154.8,178.7 156.6,177.7 156.6,185 		"/>
		<polygon class="st22" points="153.6,178 154.8,178.7 154.8,186 153.6,185.3 		"/>
		<g>
			<polygon class="st33" points="155.3,184.1 155.8,183.8 159.4,185.8 158.9,186.1 			"/>
		</g>
		<polygon class="st34" points="158.9,187 158.9,186.1 159.4,185.8 159.4,186.7 		"/>
		<polygon class="st35" points="155.3,184.1 158.9,186.1 158.9,187 155.3,184.9 		"/>
		<g>
			<polygon class="st33" points="155.3,181.6 155.8,181.3 159.4,183.4 158.9,183.7 			"/>
		</g>
		<polygon class="st34" points="158.9,184.6 158.9,183.7 159.4,183.4 159.4,184.3 		"/>
		<polygon class="st35" points="155.3,181.6 158.9,183.7 158.9,184.6 155.3,182.5 		"/>
		<g>
			<polygon class="st33" points="155.3,179.2 155.8,178.9 159.4,181 158.9,181.3 			"/>
		</g>
		<polygon class="st34" points="158.9,182.1 158.9,181.3 159.4,181 159.4,181.9 		"/>
		<polygon class="st35" points="155.3,179.2 158.9,181.3 158.9,182.1 155.3,180.1 		"/>
	</g>
	<g>
		<g>
			<polygon class="st20" points="165.8,160 167.5,159 168.7,159.7 167,160.7 			"/>
		</g>
		<polygon class="st21" points="167,168 167,160.7 168.7,159.7 168.7,167 		"/>
		<polygon class="st22" points="165.8,160 167,160.7 167,168 165.8,167.3 		"/>
		<g>
			<polygon class="st33" points="167.5,166.1 168,165.8 171.6,167.8 171,168.1 			"/>
		</g>
		<polygon class="st34" points="171,169 171,168.1 171.6,167.8 171.6,168.7 		"/>
		<polygon class="st35" points="167.5,166.1 171,168.1 171,169 167.5,167 		"/>
		<g>
			<polygon class="st33" points="167.5,163.6 168,163.3 171.6,165.4 171,165.7 			"/>
		</g>
		<polygon class="st34" points="171,166.6 171,165.7 171.6,165.4 171.6,166.3 		"/>
		<polygon class="st35" points="167.5,163.6 171,165.7 171,166.6 167.5,164.5 		"/>
		<g>
			<polygon class="st33" points="167.5,161.2 168,160.9 171.6,163 171,163.3 			"/>
		</g>
		<polygon class="st34" points="171,164.2 171,163.3 171.6,163 171.6,163.9 		"/>
		<polygon class="st35" points="167.5,161.2 171,163.3 171,164.2 167.5,162.1 		"/>
	</g>
	<g>
		<g>
			<polygon class="st20" points="162.7,161.4 164.5,160.4 165.6,161.1 163.9,162.1 			"/>
		</g>
		<polygon class="st21" points="163.9,169.4 163.9,162.1 165.6,161.1 165.6,168.4 		"/>
		<polygon class="st22" points="162.7,161.4 163.9,162.1 163.9,169.4 162.7,168.7 		"/>
		<g>
			<polygon class="st33" points="164.4,167.5 164.9,167.2 168.5,169.2 168,169.5 			"/>
		</g>
		<polygon class="st34" points="168,170.4 168,169.5 168.5,169.2 168.5,170.1 		"/>
		<polygon class="st35" points="164.4,167.5 168,169.5 168,170.4 164.4,168.4 		"/>
		<g>
			<polygon class="st33" points="164.4,165 164.9,164.7 168.5,166.8 168,167.1 			"/>
		</g>
		<polygon class="st34" points="168,168 168,167.1 168.5,166.8 168.5,167.7 		"/>
		<polygon class="st35" points="164.4,165 168,167.1 168,168 164.4,165.9 		"/>
		<g>
			<polygon class="st33" points="164.4,162.6 164.9,162.3 168.5,164.4 168,164.7 			"/>
		</g>
		<polygon class="st34" points="168,165.5 168,164.7 168.5,164.4 168.5,165.3 		"/>
		<polygon class="st35" points="164.4,162.6 168,164.7 168,165.5 164.4,163.5 		"/>
	</g>
	<g>
		<g>
			<polygon class="st20" points="159.7,163.3 161.4,162.3 162.6,163 160.9,164 			"/>
		</g>
		<polygon class="st21" points="160.9,171.4 160.9,164 162.6,163 162.6,170.4 		"/>
		<polygon class="st22" points="159.7,163.3 160.9,164 160.9,171.4 159.7,170.7 		"/>
		<g>
			<polygon class="st33" points="161.4,169.4 161.9,169.1 165.5,171.1 165,171.4 			"/>
		</g>
		<polygon class="st34" points="165,172.3 165,171.4 165.5,171.1 165.5,172 		"/>
		<polygon class="st35" points="161.4,169.4 165,171.4 165,172.3 161.4,170.3 		"/>
		<g>
			<polygon class="st33" points="161.4,167 161.9,166.7 165.5,168.7 165,169 			"/>
		</g>
		<polygon class="st34" points="165,169.9 165,169 165.5,168.7 165.5,169.6 		"/>
		<polygon class="st35" points="161.4,167 165,169 165,169.9 161.4,167.9 		"/>
		<g>
			<polygon class="st33" points="161.4,164.5 161.9,164.2 165.5,166.3 165,166.6 			"/>
		</g>
		<polygon class="st34" points="165,167.5 165,166.6 165.5,166.3 165.5,167.2 		"/>
		<polygon class="st35" points="161.4,164.5 165,166.6 165,167.5 161.4,165.4 		"/>
	</g>
	<g>
		<g>
			<polygon class="st20" points="156.7,164.9 158.4,163.9 159.6,164.6 157.9,165.6 			"/>
		</g>
		<polygon class="st21" points="157.9,173 157.9,165.6 159.6,164.6 159.6,172 		"/>
		<polygon class="st22" points="156.7,164.9 157.9,165.6 157.9,173 156.7,172.3 		"/>
		<g>
			<polygon class="st33" points="158.4,171 158.9,170.7 162.5,172.8 162,173 			"/>
		</g>
		<polygon class="st34" points="162,173.9 162,173 162.5,172.8 162.5,173.6 		"/>
		<polygon class="st35" points="158.4,171 162,173 162,173.9 158.4,171.9 		"/>
		<g>
			<polygon class="st33" points="158.4,168.6 158.9,168.3 162.5,170.3 162,170.6 			"/>
		</g>
		<polygon class="st34" points="162,171.5 162,170.6 162.5,170.3 162.5,171.2 		"/>
		<polygon class="st35" points="158.4,168.6 162,170.6 162,171.5 158.4,169.5 		"/>
		<g>
			<polygon class="st33" points="158.4,166.1 158.9,165.9 162.5,167.9 162,168.2 			"/>
		</g>
		<polygon class="st34" points="162,169.1 162,168.2 162.5,167.9 162.5,168.8 		"/>
		<polygon class="st35" points="158.4,166.1 162,168.2 162,169.1 158.4,167 		"/>
	</g>
	<g>
		<g>
			<polygon class="st20" points="153.6,166.8 155.4,165.8 156.6,166.5 154.8,167.5 			"/>
		</g>
		<polygon class="st21" points="154.8,174.9 154.8,167.5 156.6,166.5 156.6,173.9 		"/>
		<polygon class="st22" points="153.6,166.8 154.8,167.5 154.8,174.9 153.6,174.2 		"/>
		<g>
			<polygon class="st33" points="155.3,172.9 155.8,172.6 159.4,174.7 158.9,175 			"/>
		</g>
		<polygon class="st34" points="158.9,175.9 158.9,175 159.4,174.7 159.4,175.6 		"/>
		<polygon class="st35" points="155.3,172.9 158.9,175 158.9,175.9 155.3,173.8 		"/>
		<g>
			<polygon class="st33" points="155.3,170.5 155.8,170.2 159.4,172.3 158.9,172.5 			"/>
		</g>
		<polygon class="st34" points="158.9,173.4 158.9,172.5 159.4,172.3 159.4,173.1 		"/>
		<polygon class="st35" points="155.3,170.5 158.9,172.5 158.9,173.4 155.3,171.4 		"/>
		<g>
			<polygon class="st33" points="155.3,168.1 155.8,167.8 159.4,169.8 158.9,170.1 			"/>
		</g>
		<polygon class="st34" points="158.9,171 158.9,170.1 159.4,169.8 159.4,170.7 		"/>
		<polygon class="st35" points="155.3,168.1 158.9,170.1 158.9,171 155.3,169 		"/>
	</g>
	<path class="st40" d="M197.4,143.3l-6.2-3.6v-3.4c0.1-0.3,0.2-0.6,0.2-0.9s-0.1-0.5-0.2-0.6v-25.8c0-1.7-1.1-3.1-2.5-3.6
		c-1.2-1.3-3.1-1.8-4.9-0.8l-20.8,12l-33.2,19.2l0,0l0,0l0,0l-0.1,0c-0.2,0.1-0.5,0.3-0.7,0.5c-0.1,0.1-0.1,0.1-0.2,0.2
		c-0.2,0.1-0.3,0.2-0.4,0.4c-0.1,0.1-0.1,0.1-0.2,0.2c-0.2,0.2-0.3,0.4-0.5,0.5l0,0c-0.9,1.2-1.5,2.7-1.5,4.3v61.5
		c0,1.7,1.1,3.1,2.5,3.6c1.2,1.3,3.1,1.8,4.9,0.8l54-31.2c2.1-1.2,3.5-3.5,3.5-6v-0.1l6.2-3.6v-11l-1.4-0.8l1.4-0.8V143.3z"/>
	<g>
		<path class="st41" d="M188.8,111.5l1.5-1.8l-2-1.2l0,0c-0.5-0.3-1.3-0.3-2.2,0c-2,0.7-3.9,2.8-4.2,4.7c-0.2,1.1,0.1,1.8,0.8,2.2
			l0,0l2.1,1.2l1.6-2C187.4,113.8,188.3,112.6,188.8,111.5z"/>
		<path class="st42" d="M188.8,111.5l1.5-1.8l-2-1.2l0,0c-0.5-0.3-1.3-0.3-2.2,0c-2,0.7-3.9,2.8-4.2,4.7c-0.2,1.1,0.1,1.8,0.8,2.2
			l0,0l2.1,1.2l1.6-2C187.4,113.8,188.3,112.6,188.8,111.5z"/>
		
			<ellipse transform="matrix(0.7071 -0.7071 0.7071 0.7071 -25.0918 165.679)" class="st41" cx="187.4" cy="113.1" rx="4.5" ry="2.6"/>
		<ellipse transform="matrix(0.7071 -0.7071 0.7071 0.7071 -25.2975 166.1949)" class="st42" cx="188" cy="113.6" rx="3.4" ry="2"/>
		<polygon class="st43" points="189.5,112.2 188.5,112.8 188.5,111.6 187.5,112.2 187.5,113.4 186.5,113.9 186.5,115.1 187.5,114.5 
			187.5,115.6 188.5,115.1 188.5,113.9 189.5,113.3 		"/>
	</g>
	<g>
		<path class="st41" d="M136.6,142.1l1.5-1.8l-2-1.2l0,0c-0.5-0.3-1.3-0.3-2.2,0c-2,0.7-3.9,2.8-4.2,4.7c-0.2,1.1,0.1,1.8,0.8,2.2
			l0,0l2.1,1.2l1.6-2C135.2,144.4,136.2,143.3,136.6,142.1z"/>
		<path class="st42" d="M136.6,142.1l1.5-1.8l-2-1.2l0,0c-0.5-0.3-1.3-0.3-2.2,0c-2,0.7-3.9,2.8-4.2,4.7c-0.2,1.1,0.1,1.8,0.8,2.2
			l0,0l2.1,1.2l1.6-2C135.2,144.4,136.2,143.3,136.6,142.1z"/>
		
			<ellipse transform="matrix(0.7071 -0.7071 0.7071 0.7071 -62.0272 137.7812)" class="st41" cx="135.3" cy="143.8" rx="4.5" ry="2.6"/>
		
			<ellipse transform="matrix(0.7071 -0.7071 0.7071 0.7071 -62.2329 138.2972)" class="st42" cx="135.8" cy="144.3" rx="3.4" ry="2"/>
		<polygon class="st43" points="137.3,142.8 136.3,143.4 136.3,142.3 135.3,142.8 135.3,144 134.3,144.6 134.3,145.7 135.3,145.1 
			135.3,146.3 136.3,145.7 136.3,144.5 137.3,144 		"/>
	</g>
	<g>
		<path class="st41" d="M188.8,171.9l1.5-1.8l-2-1.2l0,0c-0.5-0.3-1.3-0.3-2.2,0c-2,0.7-3.9,2.8-4.2,4.7c-0.2,1.1,0.1,1.8,0.8,2.2
			l0,0l2.1,1.2l1.6-2C187.4,174.2,188.3,173.1,188.8,171.9z"/>
		<path class="st42" d="M188.8,171.9l1.5-1.8l-2-1.2l0,0c-0.5-0.3-1.3-0.3-2.2,0c-2,0.7-3.9,2.8-4.2,4.7c-0.2,1.1,0.1,1.8,0.8,2.2
			l0,0l2.1,1.2l1.6-2C187.4,174.2,188.3,173.1,188.8,171.9z"/>
		
			<ellipse transform="matrix(0.7071 -0.7071 0.7071 0.7071 -67.8155 183.3757)" class="st41" cx="187.4" cy="173.5" rx="4.5" ry="2.6"/>
		<ellipse transform="matrix(0.7071 -0.7071 0.7071 0.7071 -68.0212 183.8916)" class="st42" cx="188" cy="174.1" rx="3.4" ry="2"/>
		<polygon class="st43" points="189.5,172.6 188.5,173.2 188.5,172.1 187.5,172.6 187.5,173.8 186.5,174.4 186.5,175.5 187.5,174.9 
			187.5,176.1 188.5,175.5 188.5,174.3 189.5,173.7 		"/>
	</g>
	<g>
		<path class="st41" d="M136.6,202.5l1.5-1.8l-2-1.2l0,0c-0.5-0.3-1.3-0.3-2.2,0c-2,0.7-3.9,2.8-4.2,4.7c-0.2,1.1,0.1,1.8,0.8,2.2
			l0,0l2.1,1.2l1.6-2C135.2,204.8,136.2,203.7,136.6,202.5z"/>
		<path class="st42" d="M136.6,202.5l1.5-1.8l-2-1.2l0,0c-0.5-0.3-1.3-0.3-2.2,0c-2,0.7-3.9,2.8-4.2,4.7c-0.2,1.1,0.1,1.8,0.8,2.2
			l0,0l2.1,1.2l1.6-2C135.2,204.8,136.2,203.7,136.6,202.5z"/>
		
			<ellipse transform="matrix(0.7071 -0.7071 0.7071 0.7071 -104.7509 155.478)" class="st41" cx="135.3" cy="204.2" rx="4.5" ry="2.6"/>
		
			<ellipse transform="matrix(0.7071 -0.7071 0.7071 0.7071 -104.9566 155.9939)" class="st42" cx="135.8" cy="204.7" rx="3.4" ry="2"/>
		<polygon class="st43" points="137.3,203.3 136.3,203.8 136.3,202.7 135.3,203.3 135.3,204.4 134.3,205 134.3,206.1 135.3,205.5 
			135.3,206.7 136.3,206.1 136.3,205 137.3,204.4 		"/>
	</g>
	<g>
		<polygon class="st24" points="134.1,203.2 134.1,192.3 140.4,188.6 140.4,199.6 		"/>
		<polygon class="st25" points="127.9,188.6 134.1,192.3 134.1,203.2 127.9,199.6 		"/>
		<polygon class="st35" points="129.2,191.2 132.8,193.3 132.8,195.8 129.2,193.7 		"/>
		<polygon class="st35" points="129.2,195.8 132.8,197.9 132.8,200.3 129.2,198.2 		"/>
		<g>
			<polygon class="st23" points="127.9,176.1 134.1,172.5 140.4,176.1 134.1,179.7 			"/>
		</g>
		<polygon class="st24" points="134.1,190.6 134.1,179.7 140.4,176.1 140.4,187 		"/>
		<polygon class="st35" points="129.2,178.7 132.8,180.7 132.8,183.2 129.2,181.1 		"/>
		<polygon class="st35" points="129.2,183.2 132.8,185.3 132.8,187.8 129.2,185.7 		"/>
		
			<ellipse transform="matrix(0.4806 -0.8769 0.8769 0.4806 -87.0947 214.2508)" class="st44" cx="137.3" cy="180.6" rx="2" ry="1.2"/>
		
			<ellipse transform="matrix(0.4806 -0.8769 0.8769 0.4806 -91.9315 217.1156)" class="st44" cx="137.3" cy="186.2" rx="2" ry="1.2"/>
		
			<ellipse transform="matrix(0.4806 -0.8769 0.8769 0.4806 -98.2348 220.849)" class="st44" cx="137.3" cy="193.4" rx="2" ry="1.2"/>
		
			<ellipse transform="matrix(0.4806 -0.8769 0.8769 0.4806 -103.0716 223.7139)" class="st44" cx="137.3" cy="198.9" rx="2" ry="1.2"/>
	</g>
	<path class="st12" d="M121.7,138.8L121.7,138.8l-2.2-1.3l-0.4-0.2l-26.9-16.2l-14-8.4c-2.2-1.3-3.9-0.4-3.9,2.1v76.1
		c0,4.3,3.1,9.7,6.9,12l0.6,0.3c0.5,0.3,1,0.1,1-0.5v-4.3c0-1.2,0.9-1.7,2-1.1l0.8,0.5c1.1,0.6,2,2.2,2,3.4v2.1c0,1.9,1.3,4.1,3,5.1
		l30.9,18.5 M117.9,140.4c0.8,0.6,1.4,1.7,1.3,2.6c-0.1,0.9-0.8,1.1-1.6,0.6c-0.8-0.6-1.4-1.7-1.3-2.6
		C116.3,140.1,117.1,139.8,117.9,140.4z M108.9,188.4c1.1,0.7,2,2.2,2,3.4s-0.9,1.7-2,1.1c-1.1-0.7-2-2.2-2-3.4
		S107.8,187.8,108.9,188.4z M92,206.3c-0.9-0.5-1.6-1.7-1.6-2.7c0-1,0.7-1.4,1.6-0.8c0.9,0.5,1.6,1.7,1.6,2.7
		C93.5,206.5,92.8,206.9,92,206.3z M99.9,176.9c-0.8-0.6-1.4-1.7-1.3-2.6c0.1-0.9,0.8-1.1,1.6-0.6c0.8,0.6,1.4,1.7,1.3,2.6
		S100.7,177.4,99.9,176.9z M99.9,133c-0.8-0.6-1.4-1.7-1.3-2.6s0.8-1.1,1.6-0.6c0.8,0.6,1.4,1.7,1.3,2.6
		C101.4,133.3,100.7,133.5,99.9,133z M108.9,207.4c-2.2-1.3-3.9-4.4-3.9-6.8s1.8-3.4,3.9-2.1c2.2,1.3,3.9,4.4,3.9,6.8
		C112.8,207.8,111.1,208.7,108.9,207.4z M117.6,187.5c-0.8-0.6-1.4-1.7-1.3-2.6c0.1-0.9,0.8-1.1,1.6-0.6c0.8,0.6,1.4,1.7,1.3,2.6
		C119.1,187.8,118.4,188.1,117.6,187.5z M119.8,178.8c0,1.3-0.9,1.8-2.1,1.1c-1.2-0.7-2.1-2.3-2.1-3.6v-4c0-1.3,0.9-1.8,2.1-1.1
		c1.2,0.7,2.1,2.3,2.1,3.6V178.8z"/>
	<g>
		<defs>
			<path id="SVGID_00000065786759158421892640000004880956288986225284_" d="M121.6,139.4l-2.2-1.3l-0.4-0.2l-26.9-16.2l-14-8.4
				c-2.2-1.3-3.9-0.4-3.9,2.1v76.1c0,4.3,3.1,9.7,6.9,12l0.6,0.3c0.5,0.3,1,0.1,1-0.5v-4.3c0-1.2,0.9-1.7,2-1.1l0.8,0.5
				c1.1,0.6,2,2.2,2,3.4v2.1c0,1.9,1.3,4.1,3,5.1l30.9,18.5 M117.8,141c0.8,0.6,1.4,1.7,1.3,2.6c-0.1,0.9-0.8,1.1-1.6,0.6
				c-0.8-0.6-1.4-1.7-1.3-2.6C116.3,140.7,117,140.5,117.8,141z M108.8,189.1c1.1,0.7,2,2.2,2,3.4s-0.9,1.7-2,1.1
				c-1.1-0.7-2-2.2-2-3.4S107.8,188.4,108.8,189.1z M91.9,207c-0.9-0.5-1.6-1.7-1.6-2.7s0.7-1.4,1.6-0.8c0.9,0.5,1.6,1.7,1.6,2.7
				C93.5,207.1,92.8,207.5,91.9,207z M99.9,177.5c-0.8-0.6-1.4-1.7-1.3-2.6s0.8-1.1,1.6-0.6c0.8,0.6,1.4,1.7,1.3,2.6
				C101.4,177.8,100.7,178.1,99.9,177.5z M99.9,133.6c-0.8-0.6-1.4-1.7-1.3-2.6s0.8-1.1,1.6-0.6c0.8,0.6,1.4,1.7,1.3,2.6
				C101.4,133.9,100.7,134.1,99.9,133.6z M108.8,208.1c-2.2-1.3-3.9-4.4-3.9-6.8s1.8-3.4,3.9-2.1c2.2,1.3,3.9,4.4,3.9,6.8
				C112.8,208.4,111,209.4,108.8,208.1z M117.6,188.1c-0.8-0.6-1.4-1.7-1.3-2.6c0.1-0.9,0.8-1.1,1.6-0.6c0.8,0.6,1.4,1.7,1.3,2.6
				C119.1,188.5,118.4,188.7,117.6,188.1z M119.8,179.4c0,1.3-0.9,1.8-2.1,1.1c-1.2-0.7-2.1-2.3-2.1-3.6v-4c0-1.3,0.9-1.8,2.1-1.1
				c1.2,0.7,2.1,2.3,2.1,3.6V179.4z M108.4,209l1.3,3.4l7.4,0.5l2.2-10.9l-6-4.9l-11.7,1l3.2,3.1c0-2.5,1.8-3.4,3.9-2.1
				c2.2,1.3,3.9,4.4,3.9,6.8c0,2.5-1.8,3.4-3.9,2.1L108.4,209z"/>
		</defs>
		<clipPath id="SVGID_00000034080416864573484800000006454517677607681979_">
			<use xlink:href="#SVGID_00000065786759158421892640000004880956288986225284_"  style="overflow:visible;"/>
		</clipPath>
		<g style="clip-path:url(#SVGID_00000034080416864573484800000006454517677607681979_);">
			<path class="st13" d="M113.5,152.5c0.1,0.1,0.2,0.1,0.3,0.2c0,0,0.1,0,0.2,0.1c0.9,0.6,1.7,0.2,1.7-0.9s-0.8-2.4-1.7-2.9
				c-0.9-0.6-1.7-0.2-1.7,0.9c0,0.5-0.4,0.7-0.8,0.4c-0.5-0.3-0.8-0.9-0.8-1.4c0-1.4,0.7-2.2,1.7-2.3c0.5-1,0.2-2.7-0.8-4.2
				c-1.2-1.7-2.9-2.4-3.7-1.6c-0.3,0.3-0.8,0-1.1-0.5c-0.4-0.5-0.4-1.1-0.2-1.4c0.1-0.1,0.2-0.2,0.3-0.2c-0.4-1.7-1.6-3.5-3-4.3
				c-1.7-1-3.1-0.3-3.1,1.7c0,0,0,0.1,0,0.1c0,0,0,0,0,0c0,0.9-0.2,1.5-0.7,1.9c-0.5,0.3-1.1,0.3-1.9-0.1c-0.2,0.2-0.6,0.2-0.9-0.1
				c-0.7-0.4-1.2-1.4-1.2-2.2c0-0.8,0.6-1.1,1.2-0.7c0.4,0.2,0.7,0.6,0.9,1c0.3,0.1,0.5,0.1,0.7,0c0.2-0.1,0.3-0.4,0.3-0.8
				c0-0.1,0-0.1,0-0.2c0,0,0,0,0-0.1c0-2-1.4-4.4-3.1-5.4c-1.5-0.9-2.8-0.5-3.1,1c0.3,0.4,0.5,0.9,0.7,1.3c0.3,0.6,0.2,1.1-0.2,1.2
				c-0.4,0.1-0.9-0.3-1.1-0.9c-1-2-2.8-3.5-4.1-3.2c-1.3,0.3-1.6,2.2-0.6,4.3c0,0.1,0.1,0.1,0.1,0.2c0.4,0.1,0.8,0.3,1.2,0.6
				c1.3,0.7,2.5,2,3.4,3.5c0.3,0.5,0.4,1.1,0.1,1.4c-0.3,0.2-0.8,0-1.1-0.6c-0.7-1-1.5-1.9-2.4-2.4c-2-1.2-3.6-0.3-3.6,1.9
				c0,2.3,1.6,5.1,3.6,6.3c0.1,0,0.1,0.1,0.2,0.1c0.1,0.1,0.3,0.1,0.4,0.2c0,0,0.1,0,0.1,0.1l16.2,9.7c-0.3-0.7-0.5-1.5-0.5-2.2
				c0-2.1,1.4-2.9,3.2-1.8c0.2-0.2,0.6-0.2,0.9,0.1c0.7,0.4,1.2,1.4,1.2,2.2c0,0.8-0.6,1.1-1.2,0.7c-0.4-0.2-0.7-0.6-0.9-1
				c-0.9-0.5-1.6-0.1-1.6,1c0,1.1,0.8,2.4,1.7,2.9c0,0,0,0,0,0l4.7,2.8c0,0,0.1,0.1,0.1,0.1c0,0,0.1,0,0.1,0.1
				c1.1,0.7,2.1,0.2,2.1-1.1s-0.9-2.9-2.1-3.6c-0.5-0.3-0.8-0.9-0.8-1.4C112.7,152.5,113,152.3,113.5,152.5z M89.8,134
				c-0.7-0.4-1.2-1.4-1.2-2.2c0-0.8,0.6-1.1,1.2-0.7c0.7,0.4,1.2,1.4,1.2,2.2C91.1,134.1,90.5,134.4,89.8,134z M88.7,141.5
				c-0.7-0.4-1.2-1.4-1.2-2.2c0-0.8,0.6-1.1,1.2-0.7c0.7,0.4,1.2,1.4,1.2,2.2C90,141.6,89.4,141.9,88.7,141.5z M95.9,138.3
				L95.9,138.3c0.3,0,0.6,0.2,1,0.6c0.3,0.3,0.6,0.7,0.7,1.2c0.1,0.4,0.1,0.8,0,1.1c-0.1,0.3-0.4,0.4-0.7,0.4
				c-0.2,0-0.3-0.1-0.5-0.2c-0.2-0.1-0.3-0.2-0.5-0.4c-0.3-0.3-0.6-0.7-0.7-1.2C95,138.9,95.2,138.3,95.9,138.3z M101.4,148.4
				c-0.5,1.3-1.8,1.5-3.3,0.6c-0.4-0.2-0.8-0.6-1.2-1c-0.9-0.9-1.6-2-2-3.2c-0.4-1.2-0.4-2.3-0.1-3.1c0.2-0.4,0.6-0.4,1,0.1
				c0.4,0.4,0.6,1.1,0.5,1.5c-0.2,0.4-0.1,1,0.1,1.6c0.2,0.6,0.6,1.2,1,1.7c1,1,2,1,2.4,0.2c0.2-0.4,0.6-0.4,1,0.1
				C101.3,147.3,101.6,148,101.4,148.4z M102,146.9c-0.7-0.4-1.2-1.4-1.2-2.2c0-0.8,0.6-1.1,1.2-0.7c0.7,0.4,1.2,1.4,1.2,2.2
				C103.3,147,102.7,147.3,102,146.9z M108.8,144.9C108.8,144.9,108.8,144.9,108.8,144.9c-0.7,0.7-1.7,0.6-2.8,0
				c-0.6-0.4-1.2-0.9-1.8-1.7c-1.5-2.1-2-4.7-1-5.8c0.2-0.3,0.7-0.1,1.1,0.4c0.4,0.5,0.5,1.1,0.2,1.4c-0.5,0.6-0.3,1.9,0.5,3
				c0.8,1.1,1.8,1.4,2.4,0.8c0,0,0.1-0.1,0.1-0.1c0-0.1,0-0.1,0-0.2c0-0.8,0.6-1.1,1.2-0.7c0.7,0.4,1.2,1.4,1.2,2.2
				C110,145,109.5,145.3,108.8,144.9z"/>
			<path class="st13" d="M121.6,137.8l-49.8-29.3v40.3l49.8,29.8 M117.2,158.9c0,2.3-1.7,3.2-3.7,2c0,0-0.1-0.1-0.1-0.1
				c0,0-0.1,0-0.1-0.1l-23.8-14.3c0,0-0.1,0-0.1,0c-1.7-1-3-0.3-3.1,1.6c0,0.9,0.3,2,0.8,3c0.6,1,1.3,1.9,2.1,2.4
				c0.5,0.3,0.8,0.9,0.8,1.4c0,0.5-0.4,0.7-0.8,0.4c0,0,0,0,0,0c-1.3-0.8-2.4-2.1-3.3-3.6c-0.9-1.5-1.3-3.2-1.3-4.6
				c0-1.6,0.7-2.6,1.7-3c-1.7-2-2.9-4.7-2.9-7.1c0-2.2,1-3.4,2.5-3.6c-1.3-3.1-0.9-5.9,1.1-6.3c1.2-0.3,2.8,0.4,4.2,1.8
				c0.6-1.8,2.5-2.3,4.5-1c1.6,1,3.1,2.8,4,4.8c0.9-0.9,2.3-1,4,0c1.9,1.2,3.6,3.5,4.4,5.9c1.4,0.1,3,1.2,4.3,3.1
				c1.3,1.9,1.9,4.1,1.7,5.7c1.8,1.1,3.2,3.6,3.2,5.7c0,1.2-0.5,2-1.3,2.2C116.7,156.3,117.2,157.7,117.2,158.9z"/>
		</g>
	</g>
	<polygon class="st13" points="121.7,138.8 121.3,177.4 121.5,177.9 122.5,177.7 122.8,177.4 124.2,138.9 	"/>
	<path class="st9" d="M121.5,177.9"/>
	<path class="st11" d="M121.5,177.9"/>
	<line class="st46" x1="122.4" y1="178.4" x2="122.4" y2="226.1"/>
	<path class="st47" d="M112.5,204.1L112.5,204.1L112.5,204.1c0,0,0.1-0.1,0.1-0.1c-0.4-2-1.7-4-3.3-5.2c-0.2,0-0.3,0.1-0.4,0.1l0,0
		l-7.2,4.1l3.6,5.2L112.5,204.1C112.5,204.1,112.5,204.1,112.5,204.1z"/>
	
		<ellipse transform="matrix(0.7992 -0.6011 0.6011 0.7992 -102.8579 103.4744)" class="st47" cx="103.4" cy="205.7" rx="1.8" ry="3.2"/>
	<path class="st13" d="M121.1,99.4c-0.2,0.1-0.2,0.3,0,0.5c0.2,0.1,0.6,0.1,0.8,0c0.2-0.1,0.2-0.3,0-0.5
		C121.7,99.3,121.3,99.3,121.1,99.4z"/>
	<path class="st7" d="M78.7,109l46.8,27l67.1-38.8L146,70.2L78.7,109z M142.8,122.2c-0.9,0.5-2.4,0.5-3.3,0c-0.9-0.5-0.9-1.4,0-1.9
		c0.9-0.5,2.4-0.5,3.3,0C143.7,120.8,143.7,121.7,142.8,122.2z M180.2,96.8c0.9-0.5,2.4-0.5,3.3,0c0.9,0.5,0.9,1.4,0,1.9
		c-0.9,0.5-2.4,0.5-3.3,0C179.3,98.2,179.3,97.3,180.2,96.8z M168.2,105.6c0.9,0.5,0.9,1.4,0,1.9c-0.9,0.5-2.4,0.5-3.3,0
		c-0.9-0.5-0.9-1.4,0-1.9C165.8,105.1,167.3,105.1,168.2,105.6z M161.9,86.2c0.9-0.5,2.4-0.5,3.3,0c0.9,0.5,0.9,1.4,0,1.9
		c-0.9,0.5-2.4,0.5-3.3,0C161,87.6,161,86.7,161.9,86.2z M146.6,95c0.9-0.5,2.4-0.5,3.3,0c0.9,0.5,0.9,1.4,0,1.9
		c-0.9,0.5-2.4,0.5-3.3,0C145.7,96.4,145.7,95.6,146.6,95z M133.4,104.2l4.1-2.4c2.2-1.3,5.9-1.3,8.1,0l10.2,5.9
		c2.2,1.3,2.2,3.4,0,4.7l-4.1,2.4c-2.2,1.3-5.9,1.3-8.1,0l-10.2-5.9C131.1,107.6,131.1,105.5,133.4,104.2z M127.5,129.1
		c0.9,0.5,0.9,1.4,0,1.9c-0.9,0.5-2.4,0.5-3.3,0c-0.9-0.5-0.9-1.4,0-1.9C125.2,128.6,126.6,128.6,127.5,129.1z M121.2,109.7
		c0.9-0.5,2.4-0.5,3.3,0c0.9,0.5,0.9,1.4,0,1.9c-0.9,0.5-2.4,0.5-3.3,0C120.3,111.1,120.3,110.3,121.2,109.7z M106,118.6
		c0.9-0.5,2.4-0.5,3.3,0c0.9,0.5,0.9,1.4,0,1.9c-0.9,0.5-2.4,0.5-3.3,0C105.1,119.9,105.1,119.1,106,118.6z"/>
	<path class="st13" d="M145.4,69.8L102,95.6l0,0l-17.3,10l0.2,0.1l-5.9,3.5l46.5,26.9l67.1-38.8L145.4,69.8z M114.5,107
		c-0.7,0.4-1.9,0.4-2.6,0c-0.7-0.4-0.7-1.1,0-1.5c0.7-0.4,1.9-0.4,2.6,0C115.2,105.9,115.2,106.6,114.5,107z M111.2,113.4
		c-0.7,0.4-1.9,0.4-2.6,0c-0.7-0.4-0.7-1.1,0-1.5c0.7-0.4,1.9-0.4,2.6,0C111.9,112.3,111.9,113,111.2,113.4z M127.5,131
		c-0.9,0.5-2.4,0.5-3.3,0c-0.9-0.5-0.9-1.4,0-1.9c0.9-0.5,2.4-0.5,3.3,0C128.4,129.7,128.4,130.5,127.5,131z M142.8,122.2
		c-0.8,0.5-2.1,0.5-3,0.1c0,0,0,0-0.1,0c-2.2,1.3-5.7,1.6-8.5,0.8c-1,1.2-2.9,2-5.2,2.2c-3.7,0.3-7.1-1.1-7.9-3.2
		c-2.6,0.4-5.6,0-7.6-1.2c-0.4-0.2-0.7-0.5-1-0.7c-0.1,0.1-0.2,0.1-0.3,0.2c-0.9,0.5-2.4,0.5-3.3,0c-0.9-0.5-0.9-1.4,0-1.9
		c0.6-0.4,1.5-0.5,2.2-0.3c-0.1-0.5-0.1-0.9,0.1-1.4c-1.3-0.2-2.6-0.5-3.6-1.1c-2.3-1.3-2.7-3.3-1.4-4.9c-2.7-0.5-4.4-2.1-3.9-3.7
		c0.2-0.7,0.8-1.4,1.7-1.9c0.2-0.1,0.4-0.2,0.7-0.3c0.2-0.1,0.4-0.2,0.6-0.2c-1.3-1.4-0.9-3.1,1.1-4.2c2.4-1.4,6.3-1.4,8.7,0
		c0.1,0,0.1,0.1,0.2,0.1c0.1,0,0.1,0,0.2,0.1c0.7,0.4,1.1,0.9,1.2,1.4c0.1,0.5-0.3,1.1-0.9,1.5c-0.6,0.4-1.5,0.7-2.4,0.7
		c-0.8,0-1.6-0.1-2.2-0.4c-0.5,0-1-0.1-1.4-0.3c-0.7-0.4-0.7-1,0-1.4s1.8-0.4,2.5,0c0.3,0.2,0.5,0.4,0.5,0.6c0.2,0,0.3,0.1,0.5,0.1
		c0.3,0,0.5-0.1,0.7-0.2c0.2-0.1,0.3-0.3,0.3-0.4c0-0.2-0.1-0.3-0.3-0.4c-0.1,0-0.2-0.1-0.2-0.2c-0.1,0-0.2-0.1-0.2-0.1
		c-1.4-0.8-3.8-0.8-5.2,0c-1.2,0.7-1.4,1.8-0.5,2.7c0,0,0.1,0.1,0.1,0.1c0.4,0,0.9,0,1.4,0c0.7,0.1,1.2,0.4,1,0.8
		c-0.1,0.4-0.7,0.7-1.4,0.6c-1.9-0.2-3.6,0.6-3.9,1.6c-0.3,1.1,1,2.1,2.9,2.2c0.1,0,0.1,0,0.2,0c1.2-0.7,2.8-1.1,4.4-1.1
		c0.7,0,1.3,0.3,1.3,0.7c0.1,0.4-0.5,0.7-1.1,0.8c-1.2,0.1-2.2,0.3-3.1,0.8c-1.9,1.1-1.9,2.9,0,4c0.9,0.5,2.1,0.8,3.3,0.8
		c0.1,0,0.1,0,0.2,0c1.2,0,2.4-0.3,3.4-0.8c0.5-0.3,1.3-0.3,1.8,0c0.5,0.3,0.5,0.7,0,1c-1.2,0.7-2.7,1.1-4.3,1.2
		c-0.5,1.1,0.1,2.3,1.5,3.1c2.2,1.3,5.7,1.3,7.9,0c0.9-0.5,1.5-1.3,1.6-2c0.1-0.4,0.7-0.7,1.3-0.7c0.7,0,1.2,0.4,1.1,0.8
		c-0.2,1.1-1,2.1-2.3,2.9c-0.4,0.3-0.9,0.5-1.4,0.7c0,0,0,0.1,0.1,0.1c0.4,1.4,2.7,2.4,5.1,2.2c2.4-0.2,4.1-1.5,3.8-3
		c-0.1-0.4,0.4-0.8,1-0.8c0.7-0.1,1.3,0.2,1.4,0.6c0.1,0.3,0.1,0.6,0,0.9c1.9,0.7,4.4,0.6,6-0.4c1.9-1.1,1.9-2.9,0-3.9l-0.2-0.1
		c0,0,0,0,0,0c-0.6-0.4-1.7-0.5-2.5-0.1c-0.6,0.3-0.8,0.9-0.3,1.3c0.5,0,1,0.1,1.3,0.3c0.7,0.4,0.7,1.1,0,1.6c-0.7,0.4-2,0.4-2.7,0
		c-0.4-0.3-0.6-0.6-0.5-0.9c-1.3-1-1.1-2.3,0.4-3.2c0.1,0,0.1-0.1,0.2-0.1c0.4-0.2,0.9-0.4,1.3-0.5l-12.1-7c-1.4-0.8-3.6-0.8-5,0
		c-1.4,0.8-1.4,2.1-0.1,2.9c0.5,0,1,0.1,1.4,0.3c0.7,0.4,0.7,1.1,0,1.5c-0.7,0.4-1.9,0.4-2.6,0c-0.4-0.2-0.6-0.5-0.5-0.8
		c-2.3-1.4-2.3-3.6,0.1-4.9c2.1-1.2,5.5-1.3,7.8-0.3c0.1,0,0.2,0.1,0.4,0.1l15.8,9.1c0.1,0,0.1,0.1,0.2,0.2c1.3,0.9,1.8,2.1,1.5,3.2
		c0.4,0.1,0.7,0.2,1,0.3C143.7,120.8,143.7,121.7,142.8,122.2z M117.6,116.9c0.7,0.4,0.7,1.1,0,1.6c-0.7,0.4-2,0.4-2.7,0
		c-0.7-0.4-0.7-1.1,0-1.6C115.6,116.5,116.8,116.5,117.6,116.9z M125,111.4c0.1,0.1,0.2,0.2,0.3,0.3c2.2,0.3,3.6,1.6,3.1,2.9
		c-0.5,1.3-2.8,2.1-5.1,1.8c-0.7-0.1-1.1-0.5-0.9-0.9s0.8-0.6,1.5-0.5c0.9,0.1,1.9-0.2,2.1-0.8c0.2-0.5-0.3-1-1.2-1.2
		c-0.7,0.3-1.8,0.3-2.5-0.1c-0.5-0.3-0.7-0.8-0.5-1.1c-0.2-0.1-0.4-0.1-0.6-0.2c-0.9-0.5-0.9-1.4,0-1.9c0.9-0.5,2.4-0.5,3.3,0
		c0.8,0.4,0.9,1.1,0.3,1.6C124.9,111.4,124.9,111.4,125,111.4z M126.8,122.5c-0.7,0.4-2,0.4-2.7,0c-0.7-0.4-0.7-1.1,0-1.6
		c0.7-0.4,2-0.4,2.7,0C127.5,121.3,127.5,122,126.8,122.5z M155.7,112.4l-4.1,2.4c-2.2,1.3-5.9,1.3-8.1,0l-10.2-5.9
		c-2.2-1.3-2.2-3.4,0-4.7l4.1-2.4c2.2-1.3,5.9-1.3,8.1,0l10.2,5.9C158,109,158,111.1,155.7,112.4z M180.2,96.8
		c0.9-0.5,2.4-0.5,3.3,0c0.9,0.5,0.9,1.4,0,1.9c-0.9,0.5-2.4,0.5-3.3,0C179.3,98.2,179.3,97.3,180.2,96.8z M148.8,84.5
		c2.8-0.8,6.2-0.5,8.4,0.8c1,0.6,1.7,1.3,2,2.1c0.7-0.1,1.3-0.1,2-0.1c-0.1-0.4,0.1-0.8,0.7-1.1c0.9-0.5,2.4-0.5,3.3,0
		c0.9,0.5,0.9,1.3,0.1,1.8c0.4,0.2,0.9,0.4,1.2,0.6c2.1,1.2,2.8,2.9,2.1,4.4c1.7,0.2,3.2,0.7,4.2,1.6c1.1,0.9,1.6,1.9,1.3,3
		c-0.3,1.1-1.3,2-2.8,2.6c-0.3,0.1-0.7,0.3-1.1,0.4c1.4,1.6,0.9,3.6-1.4,4.9c-0.1,0.1-0.3,0.2-0.4,0.2c0.7,0.5,0.6,1.3-0.2,1.7
		c-0.9,0.5-2.4,0.5-3.3,0c-0.4-0.2-0.6-0.5-0.6-0.8c-1.8,0.1-3.7-0.2-5.2-0.9c-0.1,0-0.2-0.1-0.3-0.1l-11-6.3l-4.8-2.8
		c-0.5-0.3-0.5-0.7,0-1c0.5-0.3,1.3-0.3,1.8,0l1.2,0.7c-0.2-0.4,0-0.9,0.6-1.2c0.9-0.5,2.4-0.5,3.3,0c0.1,0.1,0.2,0.1,0.3,0.2
		c1.3-0.2,2.7,0,3.7,0.6c0.5,0.3,0.6,0.7,0.1,1c-0.5,0.3-1.2,0.3-1.8,0.1c-0.6-0.3-1.5-0.3-2.1-0.1c-0.1,0.1-0.1,0.1-0.2,0.2
		c-0.1,0.1-0.3,0.1-0.4,0.2c-0.2,0.2-0.3,0.4-0.3,0.6c0,0.3,0.2,0.5,0.6,0.7c0,0,0,0,0.1,0l2.9,1.7c0.2-0.5,0.6-0.9,1.1-1.2
		c0.1,0,0.1-0.1,0.2-0.1c0.9-0.5,2.1-0.8,3.3-0.9c1,0,2,0.1,2.9,0.4c0.2-0.1,0.3-0.2,0.5-0.3c0.3-0.2,0.6-0.3,0.9-0.4
		c1.2-0.4,2.5-0.5,3.9-0.4c0.7,0.1,1.1,0.5,0.9,0.9c-0.2,0.4-0.8,0.6-1.5,0.5c-0.7-0.1-1.4,0-2,0.2c-0.6,0.2-1,0.5-1.2,0.9
		c-0.2,0.4,0,0.8,0.3,1.1c0.4,0.3,0.9,0.6,1.6,0.7c0.7,0.1,1.1,0.5,0.9,0.9c-0.2,0.4-0.8,0.6-1.5,0.5c-1.3-0.2-2.5-0.6-3.2-1.3
		c-0.6-0.6-0.9-1.3-0.7-1.9c-0.5-0.2-1.1-0.4-1.8-0.3c-0.7,0-1.3,0.2-1.8,0.5c-0.5,0.3-0.7,0.7-0.7,1.1c0,0.4,0.3,0.8,0.9,1
		c0,0,0,0,0.1,0l4.2,2.4c1.9,1.1,4.9,1.1,6.8,0c1.6-0.9,1.9-2.4,0.6-3.5c-0.5,0-1.1,0-1.6,0c-0.7-0.1-1.2-0.4-1-0.8
		c0.1-0.4,0.7-0.7,1.4-0.6c1.2,0.1,2.4-0.1,3.3-0.5c1-0.4,1.6-1,1.8-1.7c0.2-0.7-0.1-1.4-0.8-1.9c-0.7-0.6-1.8-0.9-2.9-1
		c-0.1,0-0.2,0-0.2,0c-0.3,0.3-0.7,0.6-1.1,0.8c-1.4,0.8-3.2,1.3-5.1,1.4c-0.7,0-1.3-0.3-1.3-0.7c-0.1-0.4,0.5-0.7,1.1-0.8
		c1.3-0.1,2.6-0.4,3.5-0.9c2.2-1.3,2.2-3.3,0-4.5c-1.6-0.9-3.9-1.2-5.8-0.7c-0.1,0-0.2,0.1-0.4,0.1c-0.5,0.1-1,0.3-1.5,0.6
		c0.4,0.2,0.7,0.5,0.9,0.7c0.4,0.6,0.5,1.3,0,1.9c-0.3,0.4-1,0.5-1.6,0.4c-0.6-0.1-1-0.6-0.7-0.9c0.2-0.2,0.2-0.5,0-0.8
		c-0.2-0.2-0.5-0.4-1-0.5c-0.4-0.1-0.9-0.1-1.3,0c-0.4,0.1-0.8,0.3-0.9,0.6c-0.3,0.4-1,0.5-1.6,0.4c-0.6-0.1-1-0.6-0.7-0.9
		c0.2-0.3,0.5-0.6,0.9-0.8c0.4-0.2,0.8-0.4,1.3-0.5c0.8-0.2,1.7-0.2,2.5-0.1c0.1-0.1,0.1-0.2,0.3-0.2c0.6-0.3,1.2-0.6,1.8-0.8
		c-0.2-0.6-0.6-1.1-1.4-1.5c-1.9-1.1-5-1.1-6.9,0c-0.8,0.5-1.3,1.1-1.4,1.8c-0.1,0.4-0.7,0.7-1.3,0.7c-0.7,0-1.2-0.4-1.1-0.8
		c0.1-1,0.8-1.9,2-2.6c0,0,0-0.1-0.1-0.1c-0.3-1.1-2-1.8-3.9-1.6c-1.8,0.2-3.1,1.1-2.9,2.2c0.6,0,1.1,0.1,1.6,0.3
		c0.8,0.3,1.4,0.7,1.7,1.3c0.2,0.4-0.2,0.8-0.9,0.9c-0.7,0.1-1.4-0.1-1.5-0.5c-0.1-0.2-0.3-0.3-0.5-0.4c-0.3-0.1-0.6-0.1-0.9-0.1
		c-0.6,0.1-1,0.5-0.8,0.8c0.2,0.4-0.2,0.8-0.9,0.9c-0.7,0.1-1.4-0.1-1.5-0.5c-0.3-0.8,0.1-1.5,1-2c0.1-0.1,0.3-0.1,0.4-0.2
		c0,0,0-0.1-0.1-0.1c-0.1-0.3-0.1-0.5,0-0.8c-0.1,0-0.1,0-0.2,0c-1.4-0.6-3.4-0.4-4.6,0.3c-1.4,0.8-1.4,2.2,0,3l3.8,2.2
		c0,0,0,0,0.1,0c0.4,0.3,0.9,0.4,1.5,0.4c0.6,0,1.2-0.1,1.6-0.3c0.4-0.2,0.6-0.4,0.7-0.7c0.1-0.4,0.8-0.6,1.5-0.6
		c0.7,0.1,1.1,0.5,1,0.8c-0.2,0.6-0.7,1.1-1.5,1.5c-0.9,0.5-2.2,0.7-3.4,0.7c-1.2,0-2.3-0.3-3.2-0.9c0,0,0,0-0.1,0l-4.1-2.4
		c-0.1-0.1-0.2-0.1-0.2-0.2c-1.8-1.4-1.6-3.4,0.6-4.6c1.9-1.1,4.9-1.4,7.3-0.6c0.3-0.3,0.6-0.5,1-0.7c0.9-0.5,2-0.8,3.3-1
		C145.2,81.9,147.9,82.9,148.8,84.5z"/>
	<path class="st0" d="M142,112.7c-0.6,0-1-0.5-1-1c0-2.4,1-4.4,2.7-5.3c1.1-0.6,3.3-1.2,6.5,0.9c0.5,0.3,0.6,1,0.3,1.4
		c-0.3,0.5-1,0.6-1.4,0.3c-1.7-1.1-3.2-1.4-4.4-0.8c-1,0.5-1.6,1.8-1.6,3.5C143,112.3,142.5,112.7,142,112.7z"/>
	<path class="st48" d="M140.9,113.8c-0.6,0-1-0.5-1-1c0-2.4,1-4.4,2.7-5.3c1.1-0.6,3.3-1.2,6.5,0.9c0.5,0.3,0.6,1,0.3,1.4
		c-0.3,0.5-1,0.6-1.4,0.3c-1.7-1.1-3.2-1.4-4.4-0.8c-1,0.5-1.6,1.8-1.6,3.5C142,113.3,141.5,113.8,140.9,113.8z"/>
	<g>
		<polygon class="st0" points="149,115.7 148.7,106.7 156.6,112.1 158.2,122 		"/>
		
			<ellipse transform="matrix(0.1007 -0.9949 0.9949 0.1007 25.6678 270.5826)" class="st47" cx="162.5" cy="121.1" rx="2.5" ry="4.2"/>
		<path class="st47" d="M158.3,120.7"/>
		<path class="st0" d="M157.9,125c2.2,1.6,6.1,2,8.6,0.9c1.3-0.6,2-1.5,2-2.4l0,0l0.2-10.3l-12.1-1.3c0,0-0.2,10.5-0.2,10.7
			C156.4,123.4,156.9,124.3,157.9,125z"/>
		<path class="st47" d="M156.6,111.9"/>
		<path class="st0" d="M167.2,110.4c2.2,1.6,2,3.8-0.5,5c-2.5,1.1-6.3,0.7-8.6-0.9c-1-0.7-1.5-1.5-1.5-2.4l-7.9-5.4l6.5-3.2l7.9,5.4
			C164.7,109.1,166.1,109.6,167.2,110.4z"/>
	</g>
	<g>
		<g>
			<polygon class="st23" points="184.9,155.9 191.2,152.3 197.4,155.9 191.2,159.5 			"/>
		</g>
		<polygon class="st24" points="191.2,170.4 191.2,159.5 197.4,155.9 197.4,166.8 		"/>
		<polygon class="st25" points="184.9,155.9 191.2,159.5 191.2,170.4 184.9,166.8 		"/>
		<g>
			<polygon class="st23" points="184.9,143.3 191.2,139.7 197.4,143.3 191.2,146.9 			"/>
		</g>
		<polygon class="st24" points="191.2,157.9 191.2,146.9 197.4,143.3 197.4,154.3 		"/>
		<polygon class="st25" points="184.9,143.3 191.2,146.9 191.2,157.9 184.9,154.3 		"/>
		
			<ellipse transform="matrix(0.4806 -0.8769 0.8769 0.4806 -28.5372 247.0857)" class="st44" cx="194.3" cy="147.6" rx="2" ry="1.2"/>
		
			<ellipse transform="matrix(0.4806 -0.8769 0.8769 0.4806 -33.374 249.9505)" class="st44" cx="194.3" cy="153.1" rx="2" ry="1.2"/>
		
			<ellipse transform="matrix(0.4806 -0.8769 0.8769 0.4806 -39.6773 253.6839)" class="st44" cx="194.3" cy="160.3" rx="2" ry="1.2"/>
		
			<ellipse transform="matrix(0.4806 -0.8769 0.8769 0.4806 -44.5141 256.5487)" class="st44" cx="194.3" cy="165.9" rx="2" ry="1.2"/>
	</g>
	<path class="st4" d="M190.5,176l1.6,20.1l7.5,3.4c3.3,1.5,3.4,6.2,0.2,7.8L149,233.3c-3.3,1.7-7.3,1.8-10.7,0.3l-10.3-4.7v-26.3
		l5.5,5.6l55-31L190.5,176z"/>
	<path class="st49" d="M201.5,192.2c-5,0-11-11.8-10.9-16.2l-57,32.2c0,4.4,10.2,11.1,15.2,11.1L201.5,192.2z"/>
	<g>
		<path class="st0" d="M130.4,217.9c0-12.9-10.4-29.4-23.3-37.1c-7.3-4.3-13.8-4.8-18.1-2.1l0,0l-20.9,12.8l36.3,50.6l20.7-12.6l0,0
			C128.4,227.4,130.4,223.4,130.4,217.9z"/>
		<path class="st0" d="M86.6,193.3c-12.9-7.6-23.3-3.4-23.3,9.5s10.4,29.4,23.3,37.1c12.9,7.6,23.3,3.4,23.3-9.5
			S99.5,200.9,86.6,193.3z"/>
		<path class="st1" d="M86.6,199.8c-9.3-5.5-16.8-2.4-16.8,6.8s7.5,21.2,16.8,26.7c9.3,5.5,16.8,2.4,16.8-6.8S95.9,205.3,86.6,199.8
			z"/>
		<path class="st4" d="M86.6,202.5c-7.8-4.6-14-2-14,5.7s6.3,17.8,14,22.3s14,2,14-5.7S94.4,207.1,86.6,202.5z"/>
		<path class="st1" d="M90.1,225.7c-7-4.1-12.7-13.2-12.7-20.2c0-2.3,0.6-4,1.6-5.3c-3.9,0.2-6.5,3-6.5,8c0,7.7,6.3,17.8,14,22.3
			c7.2,4.3,13.1,2.3,13.9-4.2C98.3,228.3,94.4,228.2,90.1,225.7z"/>
	</g>
	<path class="st4" d="M201.5,192.2c0,0,1.2,0.3,1.2,2.7s0,5.2,0,7c0,1.8,0.3,2.9-1.2,4.5"/>
	<polygon class="st4" points="53.1,143 58,146.6 74.2,138.2 74.2,175.7 53.1,187.5 44.6,182.8 50.6,141.5 53.4,139.8 	"/>
	<polygon class="st49" points="53.1,187.5 74.5,187.6 74.5,181.5 64.7,181.1 	"/>
	<polygon class="st49" points="201.5,206.5 201.5,192.2 148.7,219.3 148.7,233.5 	"/>
	<g>
		<path class="st19" d="M152,228c-0.4,0.1-0.7,0.1-1,0l0.7-2c0.6,0.1,1.1,0,1.7-0.3c0.2-0.1,0.4-0.2,0.5-0.3
			c0.1-0.2,0.2-0.3,0.2-0.4s-0.1-0.2-0.2-0.2c-0.1,0-0.3,0-0.6,0.1c-0.3,0-0.6,0.1-0.9,0.1s-0.4-0.1-0.6-0.2
			c-0.2-0.2-0.3-0.4-0.3-0.8c0-0.5,0.1-1,0.3-1.4c0.2-0.5,0.5-0.9,0.9-1.3c0.4-0.4,0.9-0.7,1.4-1c0.4-0.2,0.7-0.3,1.1-0.4
			c0.3-0.1,0.6-0.1,0.9,0l-0.6,1.9c-0.2-0.1-0.4-0.1-0.7,0s-0.5,0.1-0.8,0.3c-0.2,0.1-0.4,0.3-0.6,0.4s-0.2,0.3-0.2,0.4
			c0,0.1,0.1,0.2,0.2,0.2c0.1,0,0.3,0,0.6-0.1c0.3-0.1,0.6-0.1,0.8-0.1c0.2,0,0.4,0.1,0.6,0.2c0.2,0.2,0.3,0.4,0.3,0.8
			c0,0.5-0.1,1-0.3,1.4c-0.2,0.5-0.5,0.9-0.9,1.3c-0.4,0.4-0.9,0.7-1.4,1C152.8,227.8,152.3,227.9,152,228z"/>
		<path class="st19" d="M163.2,215.9l-1,7l-1.6,0.8l0.5-3.2l-1.5,3.1l-0.8,0.4l-0.8-1.9l-0.5,3.1L156,226l1-7l1.4-0.7l1.1,2.9
			l2.2-4.5L163.2,215.9z"/>
		<path class="st19" d="M166.8,219.4l-2,1l-0.5,1.4l-1.8,0.9l3.3-8.1l1.7-0.9l1.2,5.8l-1.7,0.9L166.8,219.4z M166.6,218l-0.3-1.5
			l-0.8,2L166.6,218z"/>
		<path class="st19" d="M174.2,213.9c-0.2,0.5-0.6,1.1-1,1.5l0.9,1.4l-1.8,0.9l-0.7-1.2l-0.4,0.2l-0.3,1.8l-1.7,0.9l1-7l2.3-1.2
			c0.7-0.3,1.2-0.4,1.6-0.3c0.4,0.2,0.6,0.6,0.6,1.3C174.5,212.8,174.4,213.4,174.2,213.9z M172.1,213.1l-0.6,0.3l-0.2,1.6l0.7-0.4
			c0.2-0.1,0.4-0.3,0.6-0.5c0.1-0.2,0.2-0.5,0.2-0.7C172.8,213,172.5,212.9,172.1,213.1z"/>
		<path class="st19" d="M176.3,210.9l-1.5,0.8l0.3-1.8l4.8-2.4l-0.3,1.8l-1.5,0.8l-0.8,5.2l-1.7,0.9L176.3,210.9z"/>
		<path class="st19" d="M180.3,207.2l1.7-0.9l-1,7l-1.7,0.9L180.3,207.2z"/>
		<path class="st19" d="M187.1,207.5c0.1,0.1,0.2,0.4,0.2,0.7c0,0.7-0.2,1.3-0.7,1.9c-0.5,0.6-1,1-1.7,1.4l-3,1.5l1-7l2.7-1.4
			c0.6-0.3,1.1-0.4,1.4-0.3c0.3,0.1,0.5,0.4,0.5,0.9c0,0.4-0.1,0.7-0.2,1.1c-0.2,0.4-0.4,0.7-0.7,1
			C186.8,207.2,186.9,207.3,187.1,207.5z M185.4,209.4c0.1-0.1,0.2-0.3,0.2-0.5c0-0.1,0-0.2-0.1-0.3c-0.1,0-0.2,0-0.3,0l-1.1,0.6
			l-0.2,1.1l1.1-0.6C185.1,209.7,185.2,209.6,185.4,209.4z M184.4,206.7l-0.2,1l0.9-0.5c0.4-0.2,0.6-0.5,0.6-0.9
			c0-0.1,0-0.2-0.1-0.2c-0.1,0-0.2,0-0.3,0.1L184.4,206.7z"/>
		<path class="st19" d="M189.1,209c-0.4,0-0.7-0.2-0.9-0.6c-0.2-0.4-0.3-0.8-0.3-1.3c0-0.7,0.1-1.5,0.4-2.2c0.3-0.7,0.7-1.4,1.2-2
			c0.5-0.6,1.1-1,1.7-1.3c0.5-0.3,1-0.4,1.4-0.3c0.4,0,0.7,0.2,0.9,0.6c0.2,0.4,0.3,0.8,0.3,1.3c0,0.7-0.1,1.5-0.4,2.2
			c-0.3,0.7-0.7,1.4-1.2,2c-0.5,0.6-1.1,1-1.7,1.3C189.9,209,189.5,209.1,189.1,209z M191.3,206.2c0.2-0.3,0.4-0.6,0.5-0.9
			s0.2-0.7,0.2-1.1s-0.1-0.6-0.3-0.8c-0.2-0.2-0.4-0.1-0.7,0c-0.3,0.1-0.5,0.3-0.7,0.6c-0.2,0.3-0.4,0.6-0.5,0.9s-0.2,0.7-0.2,1.1
			c0,0.4,0.1,0.7,0.3,0.8c0.2,0.1,0.4,0.1,0.7,0C190.9,206.7,191.1,206.5,191.3,206.2z"/>
		<path class="st19" d="M195.6,201.2l-1.5,0.8l0.3-1.8l4.8-2.4l-0.3,1.8l-1.5,0.8l-0.8,5.2l-1.7,0.9L195.6,201.2z"/>
	</g>
	<polygon class="st4" points="106.6,201.9 121.7,193.2 122.4,178.4 112.8,184.6 	"/>
	<polygon class="st4" points="208.3,140.4 193.2,149.6 192.5,135.8 202.1,130.6 	"/>
	<path class="st50" d="M121.7,177.9l-0.4-0.1c-0.7-0.7-1.5-1.5-2.2-2.2l-26.1-14.2c-5.4-0.7-10,0.4-13.5,3.2h0l0,0
		c-0.3,0.2-0.5,0.4-0.7,0.6l-18.9,16l46.8,20.7l6.2-17.3l9.5-5.8c-0.3-0.3-0.5-0.6-0.8-0.8L121.7,177.9z"/>
	<path class="st50" d="M61,208.2L61,208.2c-0.5-2.5-0.9-4.9-0.9-7.3c0-14.6,11.9-19.5,26.5-10.8c4.5,2.7,8.8,6.3,12.5,10.6
		c1.9,2.1,5,2.6,7.5,1.3l0,0c-5.6-7.5-12.5-14.1-20-18.5c-18.3-10.8-33.2-4.8-33.2,13.5c0,2.2,0.2,4.4,0.6,6.8L61,208.2z"/>
	<path class="st51" d="M92.9,161.4l-6.3,3.7c0,0,2.6,12.8,8.8,16.1s17.4,3.5,17.4,3.5"/>
	<path class="st52" d="M217.5,167.4c0-8.3-4.3-18.1-10.8-26l1.6-1l-0.1-0.1l-6.2-9.7c0,0-3.2-5.4-9.4-6.5l0,0l-0.4-27L146,70.1l0,0
		l-0.6-0.3l-10,6l5.9-55c0.1-1.3-0.1-2.4-0.6-3.1l0,0c-0.2-0.3-0.5-0.6-0.8-0.7l-4.3-4.2l0,0c-1.2-1.4-3.7-1.2-6.7,0.6l-58,36
		c-4.6,2.9-8.7,8.7-9.2,13.1l-8.3,77.4l-2.9,1.7l-6,41.3l8.5,4.7l2.7-1.5c0,0,0,0,0,0l-2.7,1.5l2,0c-1.1,2.6-1.7,5.8-1.7,9.4
		c0,2.2,0.2,4.4,0.6,6.8l6.9,4.5l0,0c-0.6-2.5-0.9-5-0.9-7.3c0-6.5,2.3-11,6.2-13.3l7.8,0v0.2l-5.2,3.2c-0.2,0.1-0.4,0.2-0.6,0.3
		l-0.3,0.2l0,0c-3,2.1-4.8,6-4.8,11.3c0,12.9,10.4,29.4,23.3,37.1c7.1,4.2,13.5,4.8,17.8,2.2l0,0l0.1-0.1c0,0,0,0,0,0l20.6-12.5l0,0
		c1.1-0.7,2.1-1.7,2.9-2.9v2.3l10.3,4.7c3.3,1.5,7.1,1.5,10.4-0.1v0.1l35.8-18.4l15.2-7.8c0.1,0,0.1-0.1,0.2-0.1l1.5-0.8
		c1.5-1.6,1.2-2.7,1.2-4.5c0-1.8,0-4.6,0-7c0-2.4-1.2-2.7-1.2-2.7c-1.7,0-3.5-1.4-5.2-3.4l16.1-9.8l0,0
		C215.6,176.9,217.5,173,217.5,167.4z"/>
</g>
<path class="st19" d="M103.6,117.7l19.8-10.7c1.2-0.7,2.7-0.7,4,0l21.2,11.9c0.7,0.4,0.7,1.5,0,1.9l-19.4,11.3
	c-1.3,0.7-2.9,0.7-4.1,0l-21.4-12.5C102.8,119.2,102.8,118.1,103.6,117.7z"/>
<g>
	<path class="st4" d="M115.1,119.8l2-1.2l-2.6-1.7l3.8-2.2l2.6,1.7l7.3-4.2l2.5,1.6l2.4,9l-4,2.3l-2.4-8.4l-2.8,1.6l2.3,1.5
		l-3.7,2.1l-2.3-1.5l-2,1.2L115.1,119.8z"/>
</g>
</svg>
