<?xml version="1.0" encoding="utf-8"?>
<!-- Generator: Adobe Illustrator 21.1.0, SVG Export Plug-In . SVG Version: 6.00 Build 0)  -->
<svg version="1.1" id="Layer_1" xmlns="http://www.w3.org/2000/svg" xmlns:xlink="http://www.w3.org/1999/xlink" x="0px" y="0px"
	 viewBox="0 0 200 200" style="enable-background:new 0 0 200 200;" xml:space="preserve">
<style type="text/css">
	.st0{fill:#4BA0D8;}
	.st1{fill:#6D2475;}
	.st2{opacity:0.5;fill:#3E1E45;}
	.st3{fill:#FFFFFF;}
	.st4{fill:#12AFE6;}
	.st5{fill:#919191;}
	.st6{fill:#3E1E45;}
	.st7{fill:#BCB9B8;}
	.st8{fill:#E7E7E7;}
	.st9{fill:#65436D;}
	.st10{fill:url(#SVGID_1_);}
	.st11{fill:#2ED3FF;}
	.st12{fill:#E34288;}
	.st13{fill:#B7B4A4;}
	.st14{fill:#321339;}
</style>
<path class="st0" d="M22.8,176.3c-4.8,0-7.2-3.2-8-4.6c-0.8-1.4-2.4-5,0-9.2L92.5,28c2.4-4.1,6.4-4.6,8-4.6c1.6,0,5.6,0.4,8,4.6
	l77.7,134.5c2.4,4.1,0.8,7.8,0,9.2c-0.8,1.4-3.2,4.6-8,4.6H22.8z"/>
<path class="st1" d="M136,113.7H59.5c-4.7,0-8.5,3.8-8.5,8.5v13.2v16.2v17.5v7.2h93.5v-7.2v-17.5v-16.2v-13.2
	C144.5,117.5,140.7,113.7,136,113.7z M60.1,126c-1.8,0-3.2-1.4-3.2-3.2c0-1.8,1.4-3.2,3.2-3.2c1.8,0,3.2,1.4,3.2,3.2
	C63.3,124.5,61.8,126,60.1,126z M135.4,126c-1.8,0-3.2-1.4-3.2-3.2c0-1.8,1.4-3.2,3.2-3.2c1.8,0,3.2,1.4,3.2,3.2
	C138.6,124.5,137.1,126,135.4,126z"/>
<polyline class="st2" points="104.4,113.7 106,115.3 106,134 92.6,134 91,132.4 "/>
<path class="st3" d="M63.5,136.7v23h68.5v-23H63.5z M79.2,154.5c-3.5,0-6.3-2.8-6.3-6.3c0-3.5,2.8-6.3,6.3-6.3
	c3.5,0,6.3,2.8,6.3,6.3C85.5,151.7,82.6,154.5,79.2,154.5z M104.5,153.9c-1.8,1.8-4.2,2.8-6.7,2.8s-4.9-1-6.7-2.8
	c-0.5-0.5-0.5-1.2,0-1.7c0.5-0.5,1.2-0.5,1.7,0c1.4,1.4,3.1,2.1,5,2.1c1.9,0,3.7-0.8,5-2.1c0.5-0.5,1.2-0.5,1.7,0
	C104.9,152.7,104.9,153.5,104.5,153.9z M116.3,154.5c-3.5,0-6.3-2.8-6.3-6.3c0-3.5,2.8-6.3,6.3-6.3c3.5,0,6.3,2.8,6.3,6.3
	C122.6,151.7,119.8,154.5,116.3,154.5z"/>
<rect x="50.9" y="161.6" class="st4" width="12.6" height="14.9"/>
<circle class="st5" cx="57.2" cy="166" r="2.1"/>
<circle class="st5" cx="57.2" cy="172" r="2.1"/>
<rect x="131.9" y="161.6" class="st4" width="12.6" height="14.9"/>
<circle class="st5" cx="138.2" cy="166" r="2.1"/>
<circle class="st5" cx="138.2" cy="172" r="2.1"/>
<rect x="91" y="113.7" class="st6" width="13.4" height="18.7"/>
<rect x="68.8" y="165.5" transform="matrix(-1.836970e-16 1 -1 -1.836970e-16 241.1144 96.683)" class="st6" width="6.8" height="6.8"/>
<rect x="119.9" y="165.5" transform="matrix(-4.495445e-11 1 -1 -4.495445e-11 292.1571 45.6403)" class="st6" width="6.8" height="6.8"/>
<rect x="80.7" y="162.3" class="st6" width="5.4" height="12.6"/>
<rect x="82.3" y="164" class="st7" width="2.2" height="2.2"/>
<rect x="82.3" y="164" class="st8" width="2.2" height="1.1"/>
<rect x="82.3" y="167.6" class="st7" width="2.2" height="2.2"/>
<rect x="82.3" y="167.6" class="st8" width="2.2" height="1.1"/>
<rect x="82.3" y="171.2" class="st7" width="2.2" height="2.2"/>
<rect x="82.3" y="171.2" class="st8" width="2.2" height="1.1"/>
<polygon class="st9" points="80.7,174.9 81.2,174.4 81.2,162.7 85.7,162.7 86.1,162.3 80.7,162.3 "/>
<rect x="88" y="162.3" class="st6" width="5.4" height="12.6"/>
<rect x="89.6" y="164" class="st7" width="2.2" height="2.2"/>
<rect x="89.6" y="164" class="st8" width="2.2" height="1.1"/>
<rect x="89.6" y="167.6" class="st7" width="2.2" height="2.2"/>
<rect x="89.6" y="167.6" class="st8" width="2.2" height="1.1"/>
<rect x="89.6" y="171.2" class="st7" width="2.2" height="2.2"/>
<rect x="89.6" y="171.2" class="st8" width="2.2" height="1.1"/>
<polygon class="st9" points="88,174.9 88.5,174.4 88.5,162.7 92.9,162.7 93.4,162.3 88,162.3 "/>
<rect x="95.1" y="162.3" class="st6" width="5.4" height="12.6"/>
<rect x="96.7" y="164" class="st7" width="2.2" height="2.2"/>
<rect x="96.7" y="164" class="st8" width="2.2" height="1.1"/>
<rect x="96.7" y="167.6" class="st7" width="2.2" height="2.2"/>
<rect x="96.7" y="167.6" class="st8" width="2.2" height="1.1"/>
<rect x="96.7" y="171.2" class="st7" width="2.2" height="2.2"/>
<rect x="96.7" y="171.2" class="st8" width="2.2" height="1.1"/>
<polygon class="st9" points="95.1,174.9 95.6,174.4 95.6,162.7 100.1,162.7 100.5,162.3 95.1,162.3 "/>
<rect x="102.4" y="162.3" class="st6" width="5.4" height="12.6"/>
<rect x="104" y="164" class="st7" width="2.2" height="2.2"/>
<rect x="104" y="164" class="st8" width="2.2" height="1.1"/>
<rect x="104" y="167.6" class="st7" width="2.2" height="2.2"/>
<rect x="104" y="167.6" class="st8" width="2.2" height="1.1"/>
<rect x="104" y="171.2" class="st7" width="2.2" height="2.2"/>
<rect x="104" y="171.2" class="st8" width="2.2" height="1.1"/>
<polygon class="st9" points="102.4,174.9 102.8,174.4 102.8,162.7 107.3,162.7 107.8,162.3 102.4,162.3 "/>
<rect x="109.2" y="162.3" class="st6" width="5.4" height="12.6"/>
<polygon class="st9" points="109.2,174.9 109.7,174.4 109.7,162.7 114.2,162.7 114.7,162.3 109.2,162.3 "/>
<linearGradient id="SVGID_1_" gradientUnits="userSpaceOnUse" x1="90.9983" y1="125.3362" x2="97.7047" y2="125.3362">
	<stop  offset="0" style="stop-color:#65436D"/>
	<stop  offset="1" style="stop-color:#3E1E45"/>
</linearGradient>
<rect x="91" y="118.2" class="st10" width="6.7" height="14.2"/>
<polyline class="st2" points="83,144.4 83.5,145 83.5,152.5 75.9,152.5 75.4,152 "/>
<polyline class="st2" points="120.1,144.4 120.7,145 120.7,152.5 113,152.5 112.5,152 "/>
<rect x="75.4" y="144.4" class="st3" width="7.6" height="7.6"/>
<circle class="st4" cx="79.2" cy="148.2" r="2.3"/>
<rect x="112.5" y="144.4" class="st3" width="7.6" height="7.6"/>
<circle class="st4" cx="116.3" cy="148.2" r="2.3"/>
<polygon class="st9" points="75.6,165.5 75.2,165.9 69.2,165.9 69.2,171.9 68.8,172.3 68.8,165.5 "/>
<polygon class="st9" points="126.6,165.5 126.2,165.9 120.3,165.9 120.3,171.9 119.9,172.3 119.9,165.5 "/>
<rect x="75.4" y="123.8" transform="matrix(-4.522268e-11 1 -1 -4.522268e-11 206.7982 48.4585)" class="st6" width="7.6" height="7.6"/>
<polygon class="st9" points="83,123.8 82.5,124.3 75.8,124.3 75.8,131 75.4,131.4 75.4,123.8 "/>
<path class="st2" d="M83,123.8l0.6,0.6v7.6c0,0-7.6-0.5-7.6,0l-0.7-0.7"/>
<g>
	<rect x="110.9" y="164" class="st7" width="2.2" height="2.2"/>
	<rect x="110.9" y="164" class="st8" width="2.2" height="1.1"/>
	<rect x="110.9" y="167.6" class="st7" width="2.2" height="2.2"/>
	<rect x="110.9" y="167.6" class="st8" width="2.2" height="1.1"/>
	<rect x="110.9" y="171.2" class="st7" width="2.2" height="2.2"/>
	<rect x="110.9" y="171.2" class="st8" width="2.2" height="1.1"/>
</g>
<polygon class="st11" points="63.5,161.6 62.9,162.2 51.6,162.2 51.6,175.7 50.9,176.5 50.9,161.6 "/>
<polygon class="st11" points="144.5,161.6 143.9,162.2 132.7,162.2 132.7,175.7 131.9,176.5 131.9,161.6 "/>
<rect x="91" y="113.7" class="st9" width="13.4" height="0.4"/>
<path class="st12" d="M195,157.4L117.4,22.9c-7.5-13-26.3-13-33.8,0L5.9,157.4c-7.5,13,1.9,29.3,16.9,29.3h155.3
	C193.1,186.7,202.5,170.4,195,157.4z M186.1,171.7c-0.8,1.4-3.2,4.6-8,4.6H22.8c-4.8,0-7.2-3.2-8-4.6c-0.8-1.4-2.4-5,0-9.2L92.5,28
	c2.4-4.1,6.4-4.6,8-4.6c1.6,0,5.6,0.4,8,4.6l77.7,134.5C188.4,166.7,186.9,170.4,186.1,171.7z"/>
<g>
	<path class="st13" d="M42,47.5h112.4c3.8,0,6.9,3.1,6.9,6.9v48c0,3.8-3.1,6.9-6.9,6.9H42c-3.8,0-6.9-3.1-6.9-6.9v-48
		C35.1,50.6,38.2,47.5,42,47.5z"/>
	<rect x="46.9" y="53.1" class="st14" width="102.5" height="50.6"/>
	<circle class="st3" cx="98.2" cy="78.4" r="19.2"/>
	<g>
		<circle class="st14" cx="87.6" cy="77.1" r="2.2"/>
		<path class="st14" d="M102,80.4c-1,1-2.4,1.6-3.8,1.6c-1.4,0-2.8-0.6-3.8-1.6c-0.3-0.3-0.3-0.7,0-1c0.3-0.3,0.7-0.3,1,0
			c0.8,0.8,1.8,1.2,2.9,1.2c1.1,0,2.1-0.4,2.9-1.2c0.3-0.3,0.7-0.3,1,0C102.3,79.7,102.3,80.1,102,80.4z"/>
		<circle class="st14" cx="108.8" cy="77.1" r="2.2"/>
	</g>
</g>
</svg>
