<svg width="48" height="30" viewBox="0 0 48 30" fill="none" xmlns="http://www.w3.org/2000/svg">
<path d="M6.82598 9.78307C6.92766 9.32553 7.33347 9 7.80217 9H40.1978C40.6665 9 41.0723 9.32553 41.174 9.78307L44.7296 25.7831C44.8684 26.4076 44.3931 27 43.7534 27H4.24662C3.60687 27 3.13165 26.4076 3.27043 25.7831L6.82598 9.78307Z" stroke="white" stroke-width="3"/>
<ellipse cx="37.5" cy="18" rx="1.5" ry="1" fill="white"/>
<g filter="url(#filter0_d)">
<ellipse cx="24.2727" cy="10.5" rx="8.27273" ry="6.5" fill="white"/>
<path d="M21.6136 5.73579C21.3215 5.73579 21.0358 5.80619 20.7929 5.93808C20.55 6.06997 20.3606 6.25743 20.2488 6.47675C20.137 6.69607 20.1077 6.93741 20.1648 7.17024C20.2218 7.40307 20.3624 7.61694 20.569 7.78481C20.7756 7.95267 21.0389 8.06699 21.3254 8.1133C21.612 8.15961 21.909 8.13584 22.179 8.045C22.4489 7.95415 22.6796 7.80031 22.8419 7.60292C23.0043 7.40553 23.0909 7.17347 23.0909 6.93608C23.0925 6.7781 23.0553 6.62144 22.9817 6.47524C22.908 6.32904 22.7992 6.19621 22.6617 6.0845C22.5242 5.97279 22.3608 5.88442 22.1808 5.82456C22.0009 5.76469 21.8081 5.73452 21.6136 5.73579V5.73579Z" fill="#510168"/>
<path d="M26.9318 5.73579C26.6396 5.73579 26.354 5.80619 26.1111 5.93808C25.8682 6.06997 25.6788 6.25743 25.567 6.47675C25.4552 6.69607 25.4259 6.93741 25.4829 7.17024C25.5399 7.40307 25.6806 7.61694 25.8872 7.78481C26.0938 7.95267 26.3571 8.06699 26.6436 8.1133C26.9302 8.15961 27.2272 8.13584 27.4971 8.045C27.7671 7.95415 27.9978 7.80031 28.1601 7.60292C28.3225 7.40553 28.4091 7.17347 28.4091 6.93608C28.4107 6.7781 28.3735 6.62144 28.2998 6.47524C28.2262 6.32904 28.1174 6.19621 27.9799 6.0845C27.8424 5.97279 27.6789 5.88442 27.499 5.82456C27.3191 5.76469 27.1263 5.73452 26.9318 5.73579V5.73579Z" fill="#510168"/>
<path d="M24.2727 11.9773C25.0884 11.9762 25.8898 11.8036 26.5991 11.4763C27.3084 11.149 27.9014 10.6782 28.3205 10.1096L27.31 9.62952C26.9947 10.055 26.5493 10.407 26.0171 10.6514C25.4849 10.8957 24.884 11.0241 24.2727 11.0241C23.6614 11.0241 23.0605 10.8957 22.5284 10.6514C21.9962 10.407 21.5508 10.055 21.2355 9.62952L20.225 10.1096C20.6441 10.6782 21.237 11.149 21.9463 11.4763C22.6556 11.8036 23.4571 11.9762 24.2727 11.9773V11.9773Z" fill="#510168"/>
</g>
<defs>
<filter id="filter0_d" x="9" y="0" width="30.5455" height="27" filterUnits="userSpaceOnUse" color-interpolation-filters="sRGB">
<feFlood flood-opacity="0" result="BackgroundImageFix"/>
<feColorMatrix in="SourceAlpha" type="matrix" values="0 0 0 0 0 0 0 0 0 0 0 0 0 0 0 0 0 0 127 0"/>
<feOffset dy="3"/>
<feGaussianBlur stdDeviation="3.5"/>
<feColorMatrix type="matrix" values="0 0 0 0 0 0 0 0 0 0 0 0 0 0 0 0 0 0 0.2 0"/>
<feBlend mode="normal" in2="BackgroundImageFix" result="effect1_dropShadow"/>
<feBlend mode="normal" in="SourceGraphic" in2="effect1_dropShadow" result="shape"/>
</filter>
</defs>
</svg>
