<?xml version="1.0" encoding="utf-8"?>
<!-- Generator: Adobe Illustrator 21.1.0, SVG Export Plug-In . SVG Version: 6.00 Build 0)  -->
<svg version="1.1" id="Layer_1" xmlns="http://www.w3.org/2000/svg" xmlns:xlink="http://www.w3.org/1999/xlink" x="0px" y="0px"
	 viewBox="0 0 100 100" style="enable-background:new 0 0 100 100;" xml:space="preserve">
<path d="M50,6.9C26.2,6.9,6.9,26.2,6.9,50c0,23.8,19.3,43.1,43.1,43.1S93.1,73.8,93.1,50C93.1,26.2,73.8,6.9,50,6.9z M26.5,37.4
	c-2.7,0-4.9-2.2-4.9-4.9c0-2.7,2.2-4.9,4.9-4.9s4.9,2.2,4.9,4.9C31.4,35.2,29.2,37.4,26.5,37.4z M59.1,42c-2.3,2.3-5.6,3.6-8.8,3.6
	s-6.5-1.3-8.8-3.6c-0.7-0.7-0.7-1.6,0-2.3s1.6-0.7,2.3,0c1.6,1.6,3.9,2.6,6.5,2.6c2.6,0,4.9-1,6.5-2.6c0.7-0.7,1.6-0.7,2.3,0
	C59.8,40.4,59.8,41.4,59.1,42z M73.5,37.4c-2.7,0-4.9-2.2-4.9-4.9c0-2.7,2.2-4.9,4.9-4.9s4.9,2.2,4.9,4.9
	C78.4,35.2,76.2,37.4,73.5,37.4z"/>
</svg>
