<svg width="48" height="30" viewBox="0 0 48 30" fill="none" xmlns="http://www.w3.org/2000/svg" id="mobile-down-svg">
<g clip-path="url(#clip0)">
<path d="M3.35212 5.26765C3.17512 4.63045 3.65432 4 4.31564 4H43.6844C44.3457 4 44.8249 4.63045 44.6479 5.26764L40.2034 21.2676C40.0832 21.7005 39.6891 22 39.2399 22H8.76009C8.31088 22 7.9168 21.7005 7.79657 21.2676L3.35212 5.26765Z" stroke="white" stroke-width="3"/>
<ellipse cx="37.5" cy="13" rx="1.5" ry="1" fill="white"/>
<g filter="url(#filter0_d)">
<ellipse cx="24.2727" cy="20.5" rx="8.27273" ry="6.5" fill="white"/>
<path d="M21.6136 19.7358C21.3215 19.7358 21.0358 19.8062 20.7929 19.9381C20.55 20.07 20.3606 20.2574 20.2488 20.4768C20.137 20.6961 20.1077 20.9374 20.1648 21.1702C20.2218 21.4031 20.3624 21.6169 20.569 21.7848C20.7756 21.9527 21.0389 22.067 21.3254 22.1133C21.612 22.1596 21.909 22.1358 22.179 22.045C22.4489 21.9542 22.6796 21.8003 22.8419 21.6029C23.0043 21.4055 23.0909 21.1735 23.0909 20.9361C23.0925 20.7781 23.0553 20.6214 22.9817 20.4752C22.908 20.329 22.7992 20.1962 22.6617 20.0845C22.5242 19.9728 22.3608 19.8844 22.1808 19.8246C22.0009 19.7647 21.8081 19.7345 21.6136 19.7358V19.7358Z" fill="#510168"/>
<path d="M26.9318 19.7358C26.6396 19.7358 26.354 19.8062 26.1111 19.9381C25.8682 20.07 25.6788 20.2574 25.567 20.4768C25.4552 20.6961 25.4259 20.9374 25.4829 21.1702C25.5399 21.4031 25.6806 21.6169 25.8872 21.7848C26.0938 21.9527 26.3571 22.067 26.6436 22.1133C26.9302 22.1596 27.2272 22.1358 27.4971 22.045C27.7671 21.9542 27.9978 21.8003 28.1601 21.6029C28.3224 21.4055 28.4091 21.1735 28.4091 20.9361C28.4107 20.7781 28.3735 20.6214 28.2998 20.4752C28.2262 20.329 28.1174 20.1962 27.9799 20.0845C27.8424 19.9728 27.6789 19.8844 27.499 19.8246C27.3191 19.7647 27.1263 19.7345 26.9318 19.7358V19.7358Z" fill="#510168"/>
<path d="M24.2727 25.9773C25.0884 25.9762 25.8898 25.8036 26.5991 25.4763C27.3084 25.149 27.9014 24.6782 28.3205 24.1096L27.31 23.6295C26.9947 24.055 26.5493 24.407 26.0171 24.6514C25.4849 24.8957 24.884 25.0241 24.2727 25.0241C23.6614 25.0241 23.0605 24.8957 22.5284 24.6514C21.9962 24.407 21.5508 24.055 21.2355 23.6295L20.225 24.1096C20.6441 24.6782 21.237 25.149 21.9463 25.4763C22.6556 25.8036 23.4571 25.9762 24.2727 25.9773V25.9773Z" fill="#510168"/>
</g>
</g>
<defs>
<filter id="filter0_d" x="9" y="4" width="30.5455" height="27" filterUnits="userSpaceOnUse" color-interpolation-filters="sRGB">
<feFlood flood-opacity="0" result="BackgroundImageFix"/>
<feColorMatrix in="SourceAlpha" type="matrix" values="0 0 0 0 0 0 0 0 0 0 0 0 0 0 0 0 0 0 127 0"/>
<feOffset dy="-3"/>
<feGaussianBlur stdDeviation="3.5"/>
<feColorMatrix type="matrix" values="0 0 0 0 0 0 0 0 0 0 0 0 0 0 0 0 0 0 0.2 0"/>
<feBlend mode="normal" in2="BackgroundImageFix" result="effect1_dropShadow"/>
<feBlend mode="normal" in="SourceGraphic" in2="effect1_dropShadow" result="shape"/>
</filter>
<clipPath id="clip0">
<rect width="48" height="30" fill="white"/>
</clipPath>
</defs>
</svg>
