<?xml version="1.0" encoding="utf-8"?>
<!-- Generator: Adobe Illustrator 21.1.0, SVG Export Plug-In . SVG Version: 6.00 Build 0)  -->
<svg version="1.1" id="Layer_1" xmlns="http://www.w3.org/2000/svg" xmlns:xlink="http://www.w3.org/1999/xlink" x="0px" y="0px"
	 viewBox="0 0 200 200" style="enable-background:new 0 0 200 200;" xml:space="preserve">
<style type="text/css">
	.st0{fill:#BA1200;}
	.st1{fill:none;stroke:#321339;stroke-linecap:round;stroke-linejoin:round;stroke-miterlimit:10;}
</style>
<path class="st0" d="M175.1,21.8l-36.2,20.6l-6.7-8.4l6.7-18.1L127.6,31l-29.4-3.8L46.4,76l-28,70.4l55-11.4l35.9,14.1l-3,35.1
	l56.5-5.5l10.1-76.9l-24-41.8C173.8,59.4,175.1,21.8,175.1,21.8z"/>
<g>
	<polyline class="st1" points="173,101.7 112.4,102.1 98.1,27.2 37.6,122.4 112.4,102.1 	"/>
	<polyline class="st1" points="85.7,126.9 112.4,102.1 110.3,136.8 	"/>
	<polyline class="st1" points="46.4,76 18.5,146.4 73.4,135 109.3,149.1 	"/>
	<line class="st1" x1="40.3" y1="108.1" x2="34.4" y2="106.4"/>
	<path class="st1" d="M106.3,184.1l4-47.4l-24.6-9.9l-48.1-4.4L46.4,76l51.7-48.8l29.4,3.8l11.4-15.1L132.2,34l6.7,8.4l36.2-20.6
		c0,0-1.3,37.6-26.1,38l24,41.8l-10.1,76.9L106.3,184.1"/>
	<line class="st1" x1="75.3" y1="125.9" x2="73.4" y2="135"/>
</g>
</svg>
